<?xml version="1.0" encoding="UTF-8" standalone="no"?>
<!DOCTYPE svg PUBLIC "-//W3C//DTD SVG 1.1//EN" "http://www.w3.org/Graphics/SVG/1.1/DTD/svg11.dtd">
<!-- Created with Vectornator (http://vectornator.io/) -->
<svg height="100%" stroke-miterlimit="10" style="fill-rule:nonzero;clip-rule:evenodd;stroke-linecap:round;stroke-linejoin:round;" version="1.1" viewBox="0 0 519 800" width="100%" xml:space="preserve" xmlns="http://www.w3.org/2000/svg" xmlns:vectornator="http://vectornator.io" xmlns:xlink="http://www.w3.org/1999/xlink">
<defs/>
<g id="cervena_stencil" vectornator:layerName="cervena_stencil">
<path d="M0 0L0 800L519 800L519 0L0 0ZM42.5 79.4062L42.5938 79.4062C77.3537 89.1559 112.782 96.3419 148.594 100.906C204.194 108.106 223.5 106.994 264.5 107.094C294.3 107.294 345.9 104.6 385.5 100C439.2 93.6 473.712 80.1938 474.812 79.5938C475.113 79.3937 471.788 395.606 471.188 398.906C470.588 399.206 404.813 436.594 256.812 436.594C108.612 436.594 53.3125 402.206 44.8125 398.406C44.1125 356.006 45.3125 313.688 45.3125 271.188C45.3125 271.188 42.3 79.4062 42.5 79.4062ZM48.1875 679.5C59.4683 690.333 72.625 699.026 87 705.188C109.7 714.988 134.187 722.6 160.688 728C177.956 731.65 195.43 734.321 213 736C242.248 738.747 271.631 739.776 301 739.094C317.464 738.726 333.87 737.14 350.094 734.312C373.108 730.279 395.769 724.34 417.812 716.594C425.587 713.987 433.159 710.84 440.5 707.188C450.888 702.043 460.176 694.908 467.812 686.188C468.613 687.988 468.788 689.788 468.188 691.688C466.787 693.287 465.413 694.794 463.812 696.094C451.675 706.174 437.932 714.2 423.188 719.812C406.787 726.113 390.013 731.094 372.812 734.594C342.545 741.509 311.544 744.785 280.5 744.312C256.8 743.912 238.588 743.4 225.688 742.5C206.388 741.2 184.988 738.206 161.688 733.406C142.89 729.639 124.423 724.458 106.406 717.906C95.1309 714.005 84.1539 709.24 73.5938 703.688C64.4937 698.887 55.8125 692.7 47.3125 685L47.0938 681C46.9938 680.6 47.1125 680.294 47.3125 680.094L48.1875 679.5Z" fill="#c2d047" fill-rule="nonzero" opacity="1" stroke="none"/>
</g>
</svg>
