<?xml version="1.0" encoding="UTF-8" standalone="no"?>
<!DOCTYPE svg PUBLIC "-//W3C//DTD SVG 1.1//EN" "http://www.w3.org/Graphics/SVG/1.1/DTD/svg11.dtd">
<!-- Created with Vectornator (http://vectornator.io/) -->
<svg height="100%" stroke-miterlimit="10" style="fill-rule:nonzero;clip-rule:evenodd;stroke-linecap:round;stroke-linejoin:round;" version="1.1" viewBox="0 0 519 800" width="100%" xml:space="preserve" xmlns="http://www.w3.org/2000/svg" xmlns:vectornator="http://vectornator.io" xmlns:xlink="http://www.w3.org/1999/xlink">
<defs/>
<g id="cervena" vectornator:layerName="cervena">
<path d="M42.5 79.4C42.3 79.4 45.3 271.2 45.3 271.2C45.3 313.7 44.1 356 44.8 398.4C53.3 402.2 108.6 436.6 256.8 436.6C404.8 436.6 470.6 399.2 471.2 398.9C471.8 395.6 475.1 79.4 474.8 79.6C473.7 80.2 439.2 93.6 385.5 100C345.9 104.6 294.3 107.3 264.5 107.1C223.5 107 204.2 108.1 148.6 100.9C112.788 96.3356 77.3599 89.1497 42.6 79.4L42.5 79.4Z" fill="#b93645" fill-rule="nonzero" opacity="1" stroke="none"/>
</g>
</svg>
