<?xml version="1.0" encoding="UTF-8" standalone="no"?>
<!DOCTYPE svg PUBLIC "-//W3C//DTD SVG 1.1//EN" "http://www.w3.org/Graphics/SVG/1.1/DTD/svg11.dtd">
<!-- Created with Vectornator (http://vectornator.io/) -->
<svg height="100%" stroke-miterlimit="10" style="fill-rule:nonzero;clip-rule:evenodd;stroke-linecap:round;stroke-linejoin:round;" version="1.1" viewBox="0 0 519 800" width="100%" xml:space="preserve" xmlns="http://www.w3.org/2000/svg" xmlns:vectornator="http://vectornator.io" xmlns:xlink="http://www.w3.org/1999/xlink">
<defs/>
<g id="seda" vectornator:layerName="seda">
<path d="M227.6 30.8C152.3 32.4 55 46 46.6 50.8C42.5341 53.5255 39.5596 57.5977 38.2 62.3C37.9 63.8 38.7 72 41.9 74.3C47.8723 77.8732 54.296 80.631 61 82.5C90.6 91.9 138 99.5 171 102.3C195.35 104.262 219.771 105.229 244.2 105.2C271 105.3 299.2 105.2 328.5 104.2C343.5 103.8 361.5 101.6 382.4 98.7C410.4 94.7 436 89.4 459.2 82.3C463.2 81.1 471.2 79.4 474.2 77.1C478.7 72 478.9 62.4 478.9 60.3C479.5 43.1 380.4 35.1 258.1 30.9C248.6 30.6 238.3 30.6 227.5 30.9L227.6 30.8ZM472.8 690.5C472.6 690.5 472.5 690.7 472.4 691.2C470.426 700.248 465.794 708.501 459.1 714.9C449.996 722.591 439.737 728.801 428.7 733.3C413.7 740 359.7 750.6 348.3 751.8C326.626 754.061 304.879 755.562 283.1 756.3C257.4 757.1 229.4 755.4 198.8 751.8C175.8 748.7 161.8 747.4 133.8 740.2C105.8 733 107.6 733.8 86.6 724.2C63.3 713.5 55.4 705.5 48.5 696.7C47.4 695.3 45.4 693.2 44.7 691.6C44.5 691.2 42.8 690.9 42.8 690.9C41.6585 702.043 45.5446 713.115 53.4 721.1C61.667 729.261 71.3607 735.836 82 740.5C100 749.4 102.4 750 128.7 757.5C154.3 764.7 162.2 765.8 198.8 770.5C235.4 775.2 245.6 776.4 275.4 776.2C298.341 776.309 321.241 774.267 343.8 770.1C369.5 766.1 369.6 764.3 378.6 762.4C392.9 759.4 406.9 755.4 420.6 750.4L437.5 742.7C445.9 738.7 453.6 733.9 460.5 728.1C466.363 723.433 470.769 717.188 473.2 710.1C475.346 703.718 475.205 696.789 472.8 690.5Z" fill="#aaafaf" fill-rule="nonzero" opacity="1" stroke="none" vectornator:layerName="seda"/>
</g>
</svg>
