<?xml version="1.0" encoding="UTF-8" standalone="no"?>
<!DOCTYPE svg PUBLIC "-//W3C//DTD SVG 1.1//EN" "http://www.w3.org/Graphics/SVG/1.1/DTD/svg11.dtd">
<!-- Created with Vectornator (http://vectornator.io/) -->
<svg height="100%" stroke-miterlimit="10" style="fill-rule:nonzero;clip-rule:evenodd;stroke-linecap:round;stroke-linejoin:round;" version="1.1" viewBox="0 0 519 800" width="100%" xml:space="preserve" xmlns="http://www.w3.org/2000/svg" xmlns:xlink="http://www.w3.org/1999/xlink">
<defs/>
<g id="sedastencil">
<path d="M0 0L0 800L519 800L519 0L0 0ZM227.594 30.8125L227.5 30.9062C238.3 30.6062 248.594 30.6062 258.094 30.9062C380.394 35.1062 479.506 43.1125 478.906 60.3125C478.906 62.4125 478.688 71.9937 474.188 77.0938C471.187 79.3938 463.188 81.1125 459.188 82.3125C435.987 89.4125 410.406 94.6875 382.406 98.6875C361.506 101.587 343.5 103.787 328.5 104.188C299.2 105.188 270.988 105.288 244.188 105.188C219.758 105.217 195.35 104.274 171 102.312C138 99.5125 90.6 91.9 61 82.5C54.296 80.631 47.8786 77.8857 41.9062 74.3125C38.7063 72.0125 37.8875 63.8125 38.1875 62.3125C39.5471 57.6102 42.5278 53.538 46.5938 50.8125C54.9938 46.0125 152.294 32.4125 227.594 30.8125ZM472.812 690.5C475.217 696.789 475.333 703.712 473.188 710.094C470.757 717.182 466.363 723.427 460.5 728.094C453.6 733.894 445.9 738.687 437.5 742.688L420.594 750.406C406.894 755.406 392.894 759.406 378.594 762.406C369.594 764.306 369.513 766.094 343.812 770.094C321.253 774.26 298.347 776.296 275.406 776.188C245.606 776.387 235.413 775.2 198.812 770.5C162.212 765.8 154.288 764.7 128.688 757.5C102.388 750 100 749.4 82 740.5C71.3607 735.836 61.6733 729.255 53.4062 721.094C45.5509 713.109 41.671 702.049 42.8125 690.906C42.8125 690.906 44.4875 691.194 44.6875 691.594C45.3875 693.194 47.4 695.288 48.5 696.688C55.4 705.488 63.2937 713.488 86.5938 724.188C107.594 733.788 105.812 732.987 133.812 740.188C161.813 747.387 175.812 748.712 198.812 751.812C229.413 755.413 257.394 757.113 283.094 756.312C304.873 755.574 326.638 754.073 348.312 751.812C359.713 750.613 413.687 740.013 428.688 733.312C439.724 728.813 449.989 722.598 459.094 714.906C465.788 708.507 470.432 700.236 472.406 691.188C472.506 690.687 472.612 690.5 472.812 690.5Z" fill="#c2d047" fill-rule="nonzero" opacity="1" stroke="none"/>
</g>
</svg>
