<?xml version="1.0" encoding="UTF-8" standalone="no"?>
<!DOCTYPE svg PUBLIC "-//W3C//DTD SVG 1.1//EN" "http://www.w3.org/Graphics/SVG/1.1/DTD/svg11.dtd">
<!-- Created with Vectornator (http://vectornator.io/) -->
<svg height="100%" stroke-miterlimit="10" style="fill-rule:nonzero;clip-rule:evenodd;stroke-linecap:round;stroke-linejoin:round;" version="1.1" viewBox="0 0 519 800" width="100%" xml:space="preserve" xmlns="http://www.w3.org/2000/svg" xmlns:vectornator="http://vectornator.io" xmlns:xlink="http://www.w3.org/1999/xlink">
<defs/>
<g id="biela" vectornator:layerName="biela">
<path d="M46 397.5C46 397.5 124.5 435.8 254.7 435.8C384.8 435.8 471.7 397 471.7 397L468.5 695.2C468.5 695.2 463.2 714.7 432.4 730C401.9 745.2 346.4 756.3 261.9 756.3C92.1 756.3 46.5 694.6 46.5 694.6L45.9 397.6L46 397.5Z" fill="#f0ebdd" fill-rule="nonzero" opacity="1" stroke="none" vectornator:layerName="path"/>
<path d="M144 311.8C141.7 311.5 139.7 312.1 138 313.6C135.852 315.278 134.509 317.782 134.3 320.5C134 323.5 135 326.1 137.4 328.5C140.9 332.1 145.1 333.6 149.9 333.1L151.1 333C152.3 333 152.7 332.2 152.3 331L152.1 330C152.1 329.5 152.1 329.2 151.8 328.9C151.7 328.6 151.3 328.5 151 328.6C148.3 329.1 146 328.9 144 328.2C140 326.7 138.4 324.2 139.3 320.6C139.7 318.8 140.6 317.6 141.9 316.8C143.5 315.8 145.3 315.8 147.1 317L148.9 318.6C150.1 319.6 151.3 319.4 152.4 317.7C152.6 317.5 152.6 317.2 152.4 316.9C151.031 314.724 148.944 313.097 146.5 312.3L144.1 311.7L144 311.8ZM373.3 313.8L362.6 315.2C362.3 315.3 362 315.6 362 315.9L362 333.9C362 333.9 362 334.1 362.2 334.2L362.5 334.2C366.2 333.9 369.8 333.2 373.2 332.4C378.4 331.1 381 328.1 381.2 323.4C381.386 319.793 379.632 316.362 376.6 314.4C375.6 313.8 374.6 313.6 373.3 313.8ZM371.8 318.4C373 318.4 374 318.8 374.9 319.6C377.3 321.6 377.9 323.7 376.6 325.8C375.663 327.221 374.241 328.252 372.6 328.7C371.1 329.2 369.4 329.4 367.6 329.3C367.363 329.252 367.195 329.041 367.2 328.8L367.2 320.4C367.2 320 367.5 319.7 367.8 319.5C369.027 318.82 370.398 318.443 371.8 318.4ZM171.3 316.7C166.9 316.2 162.7 318.1 160.9 321.8C158.5 326.8 161.3 333 167.2 335.8C173 338.7 179.7 337 182.1 332C184.4 327.1 181.7 320.8 175.8 318C174.4 317.3 172.8 316.8 171.3 316.7ZM171.6 321.3C172.4 321.4 173.2 321.7 174 322.1C177.2 323.8 178.6 327.4 177.1 330.1C175.7 332.8 171.9 333.6 168.8 331.9C165.6 330.2 164.2 326.6 165.6 323.9C166.7 321.9 169.1 320.9 171.6 321.3ZM352.6 317L337.1 318.5C336.8 318.5 336.6 318.8 336.6 319.1L336.4 337.6L336.6 337.9L336.9 338L351.9 336.2C352.3 336.2 352.7 335.8 352.9 335.4C353.2 334 353.3 333 353 332.4C353 332.2 352.6 332 352.2 332.1L343.8 333.1C343.506 333.128 343.225 332.968 343.1 332.7C342.1 330.4 342.5 329.1 344.6 328.9L346.7 328.8C348.7 328.4 350.6 328.2 352.5 328C353.2 328 353.5 327.5 353.4 326.7L353.4 325.7C353.8 324.5 353.3 323.9 351.8 324.1C349.2 324.5 346.5 324.7 343.8 324.9C343.512 324.903 343.244 324.75 343.1 324.5C342.1 322.7 342.5 321.7 344.5 321.5C348.3 321.1 351.1 320.7 352.7 320.3C353 320.3 353.3 320 353.3 319.7C353.448 318.941 353.448 318.159 353.3 317.4C353.1 317.1 352.9 317 352.6 317ZM190.6 318.6C190.4 318.7 190.3 319.1 190.4 319.6L190.5 320.9C190.5 326.4 190.3 331.8 190.1 337.2C190.1 337.5 190.3 337.8 190.5 337.8L194.5 338.1C194.6 338.1 194.7 338.1 194.8 337.9L195 337.5L195.5 326.8C195.5 326.5 195.6 326.4 195.9 326.7L204.6 337.2C205.9 338.9 207.8 339.5 210 338.9C210.3 338.9 210.5 338.6 210.5 338.3L211 320.6C211 320.3 210.7 320 210.3 320L206.5 319.7L206 319.8L205.8 320.2L205.6 329.4C205.6 330.6 205.2 330.7 204.4 329.8C201.901 326.672 199.367 323.572 196.8 320.5C195.8 319.2 194.5 318.5 192.8 318.7L191.8 318.6C191.3 318.4 190.8 318.4 190.7 318.6L190.6 318.6ZM318.3 320.1C315.8 320.1 313.9 320.7 312.3 322.1C311.13 323.044 310.495 324.5 310.6 326C310.7 327.4 311.3 328.5 312.4 329.4C314.1 331 316.7 331.8 320.1 331.8C321.5 331.8 322.6 332.2 323.6 333.2C324.5 334.2 324.4 335 323.2 335.8C322.6 336.3 321.9 336.5 321.1 336.8C318.1 337.3 315.5 336.8 313 335C312.718 334.766 312.323 334.727 312 334.9C311.1 335.3 310.5 336.1 310.2 337.2C310.1 337.5 310.2 337.8 310.4 338C313.8 340.7 317.6 341.8 321.8 341.3C325.4 340.8 327.6 339.1 328.5 336.1C329.2 334.1 328.9 332.1 327.6 330.7C326.3 329.1 324.3 328.3 321.7 328.3C320.4 328.3 319.1 328 317.8 327.5C316.1 326.8 315.6 326 316.2 325.1C316.6 324.5 317.2 324.2 318.1 324.1C319.981 323.912 321.882 324.082 323.7 324.6C324.7 324.9 325.3 324.9 325.8 324.6C326.4 324.4 327 323.9 327.6 323.2C327.8 323 327.8 322.8 327.8 322.5C327.8 322.3 327.6 322.1 327.3 322C324.443 320.803 321.395 320.125 318.3 320L318.3 320.1ZM221.3 320.6C221 320.6 220.8 320.8 220.8 321.1L220.3 339.9C220.3 340.2 220.5 340.5 220.8 340.5L223.8 340.8L227.1 341C231.1 341.4 234.6 341 237.7 339.7C242.1 337.9 243.7 334.4 242.5 329.3C241.5 324.8 238.8 322.3 234.5 321.5C230.131 320.839 225.719 320.505 221.3 320.5L221.3 320.6ZM226.8 325.2L231.5 325.3C233.2 325.3 234.7 325.9 235.8 326.8C236.9 327.7 237.5 328.8 237.8 330.2C238 331.9 237.6 333.2 236.5 334.3C235.5 335.3 234.1 335.9 232.1 336.2C230.3 336.4 228.7 336.4 227.1 336.2C226.4 336 225.9 335.4 225.9 334.8L226.2 325.8C226.2 325.5 226.5 325.2 226.8 325.2ZM295.2 321.2L294.8 321.3L294.7 321.7L294.9 331.2C294.9 332.2 294.6 332.4 293.9 331.6L286.1 321.9C285.8 321.6 285.5 321.4 285.2 321.4L280.2 321.4L279.8 321.5L279.7 321.9L279.7 340.5C279.7 340.8 280 341 280.3 341L283.5 341C284.1 341 284.5 340.5 284.5 340L284.5 328.2C284.5 327.3 284.8 327.2 285.4 327.9L295.4 340.7C295.6 340.9 295.8 341.1 296.2 341.2C297.2 341.4 298.4 341.4 299.5 341.1C299.8 341.1 299.9 340.7 299.9 340.4L300.1 321.8C300.1 321.5 299.8 321.2 299.4 321.2C299.4 321.2 295.2 321.2 295.2 321.2ZM268.2 321.3L252 321.5C251.6 321.5 251.3 321.8 251.2 322.3L251.1 340.9L251.2 341.3L251.6 341.4L268.2 341.2C268.5 341.2 268.7 341 268.7 340.7L268.7 337.3L268.6 337C268.506 336.874 268.357 336.8 268.2 336.8L257.3 337.2C257 337.2 256.7 337 256.7 336.7L256.5 334.3C256.5 334.2 256.5 334.1 256.7 334L257.1 333.8L268.5 333.3C268.6 333.3 268.8 333.3 268.8 333.1L269 332.7L268.8 329.4C268.8 329.2 268.6 328.9 268.3 328.9L257.3 329.2C256.9 329.2 256.6 329.1 256.5 328.8C256 328 256 327.1 256.5 326.2L257.3 325.8L268.3 325.6C268.6 325.6 268.9 325.4 268.9 325.1C269.1 324 269.1 322.9 268.9 321.8C268.784 321.511 268.511 321.316 268.2 321.3Z" fill="#eee6d8" fill-rule="nonzero" opacity="1" stroke="none" vectornator:layerName="condensed"/>
<path d="M124.8 129.7C119.749 129.481 114.717 130.439 110.1 132.5C98.6 137.1 89.1 144.5 81.5 154.5L76.5 161C76.2 162.3 75.6 162.4 74.9 161.3C73.6 159.3 72.5 156.6 71.5 153.1C70.4 148.8 71 145.2 73.5 142.1C74.6 140.7 76.3 140.2 78.5 140.8C77.1632 138.671 74.9796 137.215 72.5 136.8C70.5 136.3 69.1 137 68.1 138.8C65.1716 143.931 64.9473 150.172 67.5 155.5C69.3 159.1 71.4 162.5 73.7 165.8C73.9 166.1 74 166.5 73.8 166.8L71.8 170.2C64.1125 187.799 61.2478 207.128 63.5 226.2C64.3659 232.365 66.7736 238.213 70.5 243.2C70.9 243.7 71.5 244.2 72.5 244.7C75.4902 246.504 79.2051 246.618 82.3 245C83.9845 244.433 85.5456 243.551 86.9 242.4C94.9483 234.695 100.607 224.836 103.2 214C104.5 208.9 104.9 204.2 104.5 199.7C103.878 195.261 100.178 191.898 95.7 191.7C94 191.5 92.5 192 91.2 193.2C87.1107 196.768 84.3887 201.646 83.5 207C82.8428 211.099 82.5749 215.251 82.7 219.4C82.9 219.6 83.1 219.6 83.3 219.6L86.5 218.8C86.6 216.4 87.2 212.8 88.2 207.9C88.9 204.3 90.4 201.3 92.6 199.1C93.4822 198.145 94.7017 197.571 96 197.5C97.6 197.5 98.7 198.5 99.2 200.5C99.8 203.1 99.3 205.6 97.7 208L96.5 214.5C94.8539 222.075 91.653 229.226 87.1 235.5C86.1 236.6 85 237.5 83.9 238.2C82.6 239.1 81.1 239.1 79.5 238.2C77.9965 237.573 76.7588 236.441 76 235C74.8 232.6 74 230 73.7 227.3C73.3 221.2 73.7 215 75.1 209C77.9 196.7 82.1 185 87.8 173.6C88.1 173 88.7 172.6 89.4 172.6C94.4 172.3 99.5 171.8 104.7 170.9C113.047 169.511 120.976 166.264 127.9 161.4C133.42 157.65 137.287 151.922 138.7 145.4C139.5 143 139.5 140.5 138.7 138.1C136.6 134.1 133.6 131.6 129.7 130.6C128.097 130.171 126.456 129.903 124.8 129.8L124.8 129.7ZM124.8 136.7C125.9 136.6 126.8 136.7 127.6 136.9C130.1 137.9 131.3 140 131 143.5L128.5 147.5C127.086 150.482 125.157 153.19 122.8 155.5C115.78 162.35 106.726 166.736 97 168L93 168C92 168.3 91.7 168 92 167.3C96.1389 159.091 101.652 151.65 108.3 145.3C112 141.67 116.481 138.933 121.4 137.3C122.7 136.9 123.8 136.7 124.9 136.6L124.8 136.7ZM447.3 144.2C446.8 144.2 446.3 144.4 445.7 144.7C443.798 146.154 442.57 148.321 442.3 150.7C442.3 151.5 442.5 152.8 443.1 154.7C444.1 157.7 443.7 160.7 442 163.7C442 163.9 442.1 164 442.3 164C443 164.3 443.7 164.7 444.3 165.3L444.7 165.5C444.8 165.5 444.9 165.5 445 165.3C449 161.3 451 156.3 451.3 150.5C451.3 148.1 450.6 146 449 144.3C448.4 144.1 447.9 144.1 447.3 144.2ZM442.5 144.2L432.3 145.7C432 145.7 431.7 146 431.6 146.3L420 178L400.7 230.3C399.8 232.7 397.5 235.6 393.7 238.7C392.914 240.154 391.781 241.391 390.4 242.3C389.9 242.6 389.4 242.8 388.9 242.7C388.1 242.7 387.6 242.5 387.4 241.9C387.179 241.211 387.214 240.465 387.5 239.8L423.5 147L418.2 147.8L412.2 148.6C411.7 148.6 411.3 149.1 411.2 149.6L409 155.3L402 172.8L392 198.2C391.621 199.131 391.116 200.006 390.5 200.8L387.7 207.8L387.2 210L383.8 218.3C382.768 221.055 381.531 223.729 380.1 226.3C376.3 232.7 371.4 238.3 365.3 243.6C362.467 246.109 359.218 248.105 355.7 249.5C352.7 250.2 350.9 249.5 350.2 247.2C349.698 245.565 349.733 243.813 350.3 242.2C351.413 238.67 353.533 235.542 356.4 233.2C360.6 229.6 365.4 227.2 370.8 225.7L372.9 225C373.3 225 373.5 224.7 373.5 224.4L374.2 218.9L374.1 218.6C374.006 218.474 373.857 218.4 373.7 218.4C371.5 218.4 369.7 218.4 368.1 218.1C367.5 218 367 217.8 366.7 217.5C366.3 217.1 366.2 216.6 366.4 216.1C366.637 215.731 366.988 215.45 367.4 215.3C371.6 213.3 375.6 210.9 379.4 208.1C382.343 205.805 384.621 202.768 386 199.3C387.4 195.8 386.8 192.9 384.2 190.5C380.9 189.5 377.5 189.5 373.9 190.7C362.289 194.343 353.467 203.85 350.7 215.7C350.432 216.426 349.77 216.932 349 217L344.4 218.3C343.6 218.5 343.4 218.2 343.6 217.4C344.8 213.8 345.1 210.3 344.6 206.8C344.1 204 343.2 201.8 341.8 200.2C340 198.2 337.4 197.4 334.2 197.9C332.1 198.3 331.9 197.9 333.7 196.7C340.1 192.3 346.3 187.5 352 182.3C359.159 176.194 364.316 168.075 366.8 159C367.6 155.8 366.6 152.7 364 149.7C362.748 149.126 361.341 148.985 360 149.3C356.4 150.1 353 151.8 349.7 154.4C345.2 158 339.8 163.4 333.7 170.4C322.974 182.684 313.274 195.828 304.7 209.7C304.5 210 304.3 210.3 304 210.4C301.7 211.1 299.4 211.5 297 211.4L292.7 211.7C292.3 211.7 291.8 211.3 291.7 210.7C290.8 207.9 289.5 205.4 287.7 203.3C284.288 201.205 280.157 200.625 276.3 201.7C272.929 202.985 269.863 204.961 267.3 207.5C267 207.5 267 207.4 267.1 207.1C269.386 202.459 271.753 197.858 274.2 193.3L260.6 193.1C260.2 193.1 259.9 193.2 259.7 193.5L258.3 196.5C254.472 203.331 250.772 210.232 247.2 217.2C242.49 226.365 236.459 234.788 229.3 242.2C228.202 243.557 226.841 244.68 225.3 245.5C223.471 247.849 221.057 249.677 218.3 250.8C216.6 251.6 216.1 251.1 216.7 249.2C218.17 245.426 220.013 241.808 222.2 238.4C226.379 231.766 230.217 224.924 233.7 217.9C235.3 214.4 236.1 210.9 236 207.2C236 204.8 234.9 202.8 232.7 201.5C226.4 199.8 220.7 201.1 215.7 205.3L212.6 208.8C211.8 209.7 211.4 209.6 211.6 208.4C211.7 206.4 211.1 204.4 209.5 202.8C207.489 201.273 205.025 200.463 202.5 200.5C199.553 200.758 196.675 201.536 194 202.8L190.2 205.6C189.6 206 189.3 205.9 189.2 205.3C189.208 203.828 188.674 202.404 187.7 201.3L178 200.8C177.685 200.8 177.389 200.948 177.2 201.2L165.9 221.2C162.9 226.4 159.5 231.3 155.7 236L150 242.3L148.5 243.3C145.6 246.3 143.8 246.3 143.2 243.2C143 242.1 143.2 240.8 143.7 239.4C149 225.9 154.7 212.5 160.5 199.2L149.4 197.1C148.8 197 148.3 197.3 148.1 197.8L147.2 200.2L144.5 205.5C145.3 202.3 144.8 199.7 143.2 197.5C141.427 195.057 138.618 193.578 135.6 193.5C132.879 193.599 130.229 194.391 127.9 195.8C121.9 199 117.2 203.3 113.6 208.6C110.819 212.798 108.378 217.213 106.3 221.8L105.3 225.5C105.1 225.5 105 225.6 105 225.8C104.6 228.8 104.4 231.8 104.2 234.8C103.856 239.904 105.153 244.985 107.9 249.3C108.531 250.108 109.312 250.787 110.2 251.3C112.236 252.513 114.734 252.662 116.9 251.7C121.3 249.7 124.9 247 127.9 243.2C128.5 242.4 128.9 242.5 128.9 243.5L129.2 249.3L129.2 249.7C130.2 252.1 131.7 254 133.8 255.5C139 256.1 143.6 254.5 147.7 250.7C152.893 245.925 157.585 240.63 161.7 234.9C162.3 234.5 162.4 234.6 162.2 235.2C159.877 240.796 157.41 246.332 154.8 251.8L154.8 252L154.5 253.5L153.5 256L164 256.8C164.646 257.001 165.327 257.069 166 257L183.3 218.8C184.2 216.9 185.3 215.2 186.6 213.6C187.6 212.5 188.8 211.8 190.2 211.5C191.7 211.1 192.9 211.5 193.8 212.5C195 213.9 195 215.6 193.8 217.8C187.4 233.3 181.8 246.3 176.8 256.8C176.6 257.3 176.6 257.7 176.8 258L180.5 258.2L187.5 258.7C188 258.7 188.5 258.4 188.8 258C195.495 244.681 202.161 231.347 208.8 218C210.2 215.9 212.2 214.2 214.8 213C215.6 212.6 216.5 212.7 217.2 213.3C219 214.9 219 216.8 217.2 219C216.7 220.6 216.2 221.9 215.6 222.8C211.137 230.319 207.13 238.1 203.6 246.1C202.54 249.746 202.436 253.603 203.3 257.3C203.752 259.21 204.986 260.843 206.7 261.8C207.5 261.5 209 261.3 211.5 261C212.9 260.8 214.8 260 217.2 258.7C222.933 255.372 227.96 250.956 232 245.7C232.7 244.8 232.9 244.9 232.6 245.8L232.5 246.2C229.397 252.097 226.061 257.868 222.5 263.5C218.275 272.44 213.705 281.214 208.8 289.8C208.5 290.4 208.4 290.8 208.5 291.2L221.7 292.5C222 292.5 222.3 292.4 222.4 292.1L241 257C241.4 256.3 241.7 256.3 242 257C242.952 259.608 245.117 261.586 247.8 262.3C253.4 263.8 258.6 263 263.4 259.8C268.858 256.2 273.604 251.624 277.4 246.3C283.408 237.932 287.94 228.597 290.8 218.7C291 217.7 291.7 217.2 292.8 217.4L293.8 217.4L298.1 217L300.4 215.8C301.2 215.4 301.4 215.6 300.9 216.4C296.9 223.2 293.8 230.4 291.3 237.6C289.6 242.6 288.8 247.7 288.9 253C288.676 256.98 290.837 260.713 294.4 262.5C299 263.5 303.6 262.9 308.2 260.8C312.2 258.9 315.6 256.8 318.5 254.5C328.521 246.337 336.471 235.92 341.7 224.1C342.072 223.377 342.721 222.835 343.5 222.6L351.5 219.9C352.1 219.7 352.7 219.8 353.3 220.1L359.9 223.4C360.6 223.8 360.6 224.1 359.9 224.4L353.3 226.4L343.3 233.2C340.604 236.594 338.196 240.206 336.1 244C336.3 244.5 336.3 244.9 336.1 245.3L335.7 246.3C335 249.2 335 252.3 335.6 255.5C335.823 256.787 336.541 257.936 337.6 258.7L338.1 259.2C343.155 261.559 349.038 261.336 353.9 258.6C359.708 255.454 365.002 251.441 369.6 246.7L372.9 243.7C373.2 243.3 373.3 243.4 373.2 243.8L371.6 251.2C371.972 254.134 373.877 256.648 376.6 257.8C379.8 257.7 382.6 256.8 384.8 255.4C389.362 252.493 393.139 248.51 395.8 243.8C396.6 242.4 397 242.5 397.1 244L396.6 251.5C397.353 252.72 398.38 253.747 399.6 254.5C401.9 254.6 404 254.2 405.8 253.2C409.8 251 413.1 247.8 415.6 243.8C416.2 242.9 416.7 242.8 417.2 243.6C420.7 248.4 425.2 249.4 430.5 246.6C432.5 245.6 434.2 244.2 435.7 242.5C435.9 242.2 436.3 242.2 436.5 242.3C441.1 244.6 445 243.9 448.3 240.2C449.3 239 450.3 236.2 451.3 231.8L445.3 232.8C443.9 233.4 442.3 233.6 440.8 233.3C440.7 233.3 440.6 233.3 440.6 233.1L440.6 232.8C443 226.5 444.6 219.8 445.1 212.8C445.7 205.7 446.1 199.3 446.1 193.8C446.1 191.4 446.9 186.7 448.3 179.8L440.3 183.1C440.036 183.246 439.853 183.503 439.8 183.8C433.677 201.214 426.013 218.047 416.9 234.1L415.1 236.5L412.4 240.3C412.149 240.542 411.838 240.715 411.5 240.8C409.3 241.2 408.5 240 409.1 237.2L439.4 152.8L442.6 144.3L442.5 144.2ZM356.1 158.6C357.4 158.6 357.8 159.3 357.2 160.8C356.6 162.5 355.3 164.5 353.5 166.8C351.4 170.8 348.8 174.4 345.8 177.8C342.3 182.8 337.8 186.8 332.5 189.8C331.5 190.3 331.3 190.1 331.9 189.1C334.1 185.1 336.5 181.1 339 177.1C343.3 170.1 348.7 164 355.2 158.9L356.1 158.6ZM376.7 196.6C379.5 196.9 379.7 198.4 377.3 201C375.062 204.823 371.898 208.021 368.1 210.3C367.6 210.6 367.3 210.6 367 210.3C365.5 209.9 364.9 209 365.2 207.5C366.4 202.8 369.2 199.3 373.5 197.2C374.5 196.7 375.6 196.4 376.7 196.6ZM140.5 201.2C141.2 201.4 141.7 201.8 142.2 202.4C142.8 203.3 142.9 204.4 142.6 205.8C142.3 207.4 141.7 208.8 141 210.2C138.564 219.444 134.5 228.181 129 236L124 241.2L122.5 242C120.7 243.3 119.3 243.4 118.2 242.2C117.486 241.253 117.131 240.084 117.2 238.9C117.2 236.9 117.3 234.9 117.8 233C119.9 223.4 124.2 215 130.5 207.4C132.9 204.6 135.5 202.6 138.1 201.6C139 201.2 139.8 201.1 140.5 201.2ZM436.5 203.8C436.7 203.8 436.7 204 436.7 204.3C437 208.3 436.8 212.3 436.2 216C436.6 221.5 435.2 226.7 432.1 231.6C430.887 233.641 428.537 234.716 426.2 234.3L422.4 234C422.2 234 422.1 233.9 422 233.7L422 233.3L436.3 204.2L436.6 203.8L436.5 203.8ZM327.7 208.1C328.5 208.1 329.1 208.2 329.7 208.5C331.3 209.2 332 210.8 331.7 213.2C331.5 214.5 330.5 216.7 328.5 220C324.709 231.751 318 242.348 309 250.8C307 252.9 305.3 253.3 303.7 252C302.7 251.1 302.2 249.8 302.2 248C302.3 244.5 303.2 241 304.7 237.4C308.319 228.995 312.74 220.958 317.9 213.4C319.9 211 322.3 209.4 325.3 208.5C326.075 208.245 326.884 208.11 327.7 208.1ZM272 212C273 212 273.7 212.5 274.4 213.1C275.5 214.1 276 215.6 275.8 217.4C275.595 219.2 275.016 220.937 274.1 222.5C272.926 226.184 271.523 229.791 269.9 233.3C265.9 241.8 260.1 248.7 252.3 254C249.5 255.5 247.5 255 246.4 252.5C245.938 251.449 245.938 250.251 246.4 249.2C250.77 238.253 256.337 227.823 263 218.1C264.8 215.4 266.9 213.6 269.2 212.6C270.2 212.1 271.2 211.9 272 212Z" fill="#f0ebdd" fill-rule="nonzero" opacity="1" stroke="none" vectornator:layerName="Campbells"/>
</g>
</svg>
