<?xml version="1.0" encoding="UTF-8" standalone="no"?>
<!DOCTYPE svg PUBLIC "-//W3C//DTD SVG 1.1//EN" "http://www.w3.org/Graphics/SVG/1.1/DTD/svg11.dtd">
<!-- Created with Vectornator (http://vectornator.io/) -->
<svg height="100%" stroke-miterlimit="10" style="fill-rule:nonzero;clip-rule:evenodd;stroke-linecap:round;stroke-linejoin:round;" version="1.1" viewBox="0 0 519 800" width="100%" xml:space="preserve" xmlns="http://www.w3.org/2000/svg" xmlns:vectornator="http://vectornator.io" xmlns:xlink="http://www.w3.org/1999/xlink">
<defs/>
<g id="biela-stencil" vectornator:layerName="biela stencil">
<path d="M0 0L0 800L519 800L519 0L0 0ZM124.812 129.688L124.812 129.812C126.468 129.916 128.085 130.165 129.688 130.594C133.588 131.594 136.587 134.094 138.688 138.094C139.487 140.494 139.488 143.006 138.688 145.406C137.274 151.928 133.426 157.656 127.906 161.406C120.982 166.27 113.035 169.517 104.688 170.906C99.4875 171.806 94.4063 172.294 89.4062 172.594C88.7062 172.594 88.1125 172.994 87.8125 173.594C82.1125 184.994 77.8937 196.7 75.0938 209C73.6938 215 73.2875 221.213 73.6875 227.312C73.9875 230.012 74.8 232.6 76 235C76.7588 236.441 77.9965 237.561 79.5 238.188C81.1 239.088 82.6062 239.088 83.9062 238.188C85.0063 237.487 86.0937 236.6 87.0938 235.5C91.6468 229.226 94.8539 222.075 96.5 214.5L97.6875 208C99.2875 205.6 99.7875 203.1 99.1875 200.5C98.6875 198.5 97.6 197.5 96 197.5C94.7017 197.571 93.4759 198.139 92.5938 199.094C90.3938 201.294 88.8875 204.306 88.1875 207.906C87.1875 212.806 86.6 216.412 86.5 218.812L83.3125 219.594C83.1125 219.594 82.8875 219.606 82.6875 219.406C82.5624 215.257 82.8428 211.099 83.5 207C84.3887 201.646 87.0982 196.755 91.1875 193.188C92.4875 191.987 93.9875 191.487 95.6875 191.688C100.165 191.885 103.878 195.249 104.5 199.688C104.9 204.188 104.488 208.9 103.188 214C100.595 224.836 94.9546 234.702 86.9062 242.406C85.5518 243.557 83.997 244.433 82.3125 245C79.2176 246.618 75.4902 246.492 72.5 244.688C71.5 244.187 70.9 243.688 70.5 243.188C66.7736 238.2 64.3659 232.353 63.5 226.188C61.2478 207.115 64.125 187.787 71.8125 170.188L73.8125 166.812C74.0125 166.512 73.8875 166.113 73.6875 165.812C71.3875 162.512 69.3 159.1 67.5 155.5C64.9473 150.172 65.1653 143.943 68.0938 138.812C69.0938 137.013 70.5 136.312 72.5 136.812C74.9796 137.228 77.1632 138.683 78.5 140.812C76.3 140.212 74.6 140.694 73.5 142.094C71 145.194 70.4 148.794 71.5 153.094C72.5 156.594 73.6062 159.312 74.9062 161.312C75.6062 162.412 76.2 162.3 76.5 161L81.5 154.5C89.1 144.5 98.5937 137.1 110.094 132.5C114.71 130.439 119.762 129.468 124.812 129.688ZM442.5 144.188L442.594 144.312L439.406 152.812L409.094 237.188C408.494 239.988 409.3 241.213 411.5 240.812C411.839 240.727 412.155 240.555 412.406 240.312L415.094 236.5L416.906 234.094C426.019 218.041 433.689 201.226 439.812 183.812C439.865 183.516 440.049 183.24 440.312 183.094L448.312 179.812C446.913 186.712 446.094 191.412 446.094 193.812C446.094 199.313 445.694 205.713 445.094 212.812C444.594 219.813 442.994 226.512 440.594 232.812L440.594 233.094C440.594 233.294 440.712 233.312 440.812 233.312C442.312 233.612 443.913 233.413 445.312 232.812L451.312 231.812C450.312 236.212 449.313 238.987 448.312 240.188C445.013 243.888 441.1 244.613 436.5 242.312C436.3 242.213 435.888 242.2 435.688 242.5C434.187 244.2 432.5 245.594 430.5 246.594C425.2 249.394 420.688 248.394 417.188 243.594C416.687 242.794 416.194 242.912 415.594 243.812C413.094 247.812 409.813 250.987 405.812 253.188C404.013 254.187 401.894 254.6 399.594 254.5C398.374 253.747 397.346 252.72 396.594 251.5L397.094 244C396.994 242.5 396.613 242.413 395.812 243.812C393.152 248.522 389.374 252.5 384.812 255.406C382.613 256.806 379.794 257.712 376.594 257.812C373.87 256.66 371.966 254.121 371.594 251.188L373.188 243.812C373.287 243.412 373.206 243.287 372.906 243.688L369.594 246.688C364.995 251.429 359.714 255.448 353.906 258.594C349.044 261.33 343.149 261.547 338.094 259.188L337.594 258.688C336.535 257.923 335.817 256.787 335.594 255.5C334.994 252.3 334.988 249.213 335.688 246.312L336.094 245.312C336.294 244.912 336.294 244.5 336.094 244C338.189 240.206 340.617 236.581 343.312 233.188L353.312 226.406L359.906 224.406C360.606 224.106 360.606 223.806 359.906 223.406L353.312 220.094C352.713 219.794 352.1 219.706 351.5 219.906L343.5 222.594C342.722 222.829 342.059 223.37 341.688 224.094C336.458 235.914 328.521 246.337 318.5 254.5C315.6 256.8 312.188 258.913 308.188 260.812C303.587 262.912 299.006 263.5 294.406 262.5C290.843 260.713 288.682 256.98 288.906 253C288.806 247.7 289.612 242.594 291.312 237.594C293.812 230.394 296.906 223.206 300.906 216.406C301.406 215.606 301.206 215.412 300.406 215.812L298.094 217L293.812 217.406L292.812 217.406C291.713 217.206 291.013 217.687 290.812 218.688C287.953 228.585 283.415 237.944 277.406 246.312C273.611 251.636 268.864 256.213 263.406 259.812C258.606 263.012 253.412 263.813 247.812 262.312C245.13 261.599 242.952 259.608 242 257C241.7 256.3 241.4 256.3 241 257L222.406 292.094C222.306 292.394 221.988 292.5 221.688 292.5L208.5 291.188C208.4 290.787 208.512 290.413 208.812 289.812C213.717 281.226 218.275 272.44 222.5 263.5C226.061 257.868 229.397 252.085 232.5 246.188L232.594 245.812C232.894 244.912 232.7 244.787 232 245.688C227.96 250.943 222.92 255.359 217.188 258.688C214.788 259.988 212.9 260.8 211.5 261C209 261.3 207.488 261.512 206.688 261.812C204.973 260.856 203.765 259.223 203.312 257.312C202.449 253.615 202.533 249.739 203.594 246.094C207.124 238.094 211.131 230.332 215.594 222.812C216.194 221.912 216.687 220.6 217.188 219C218.987 216.8 218.988 214.913 217.188 213.312C216.487 212.712 215.613 212.6 214.812 213C212.213 214.2 210.212 215.9 208.812 218C202.174 231.347 195.507 244.681 188.812 258C188.513 258.4 188 258.688 187.5 258.688L180.5 258.188L176.812 258C176.612 257.7 176.612 257.313 176.812 256.812C181.812 246.313 187.412 233.313 193.812 217.812C195.013 215.612 195.013 213.9 193.812 212.5C192.912 211.5 191.688 211.1 190.188 211.5C188.788 211.8 187.594 212.494 186.594 213.594C185.294 215.194 184.213 216.913 183.312 218.812L166 257C165.327 257.069 164.646 257.014 164 256.812L153.5 256L154.5 253.5L154.812 252L154.812 251.812C157.422 246.344 159.865 240.784 162.188 235.188C162.388 234.587 162.288 234.506 161.688 234.906C157.572 240.637 152.881 245.912 147.688 250.688C143.588 254.487 139.013 256.1 133.812 255.5C131.712 254 130.188 252.088 129.188 249.688L129.188 249.312L128.906 243.5C128.906 242.5 128.506 242.387 127.906 243.188C124.906 246.987 121.306 249.687 116.906 251.688C114.74 252.65 112.223 252.526 110.188 251.312C109.3 250.799 108.538 250.12 107.906 249.312C105.159 244.997 103.844 239.917 104.188 234.812C104.388 231.812 104.6 228.813 105 225.812C105 225.612 105.112 225.5 105.312 225.5L106.312 221.812C108.39 217.225 110.813 212.792 113.594 208.594C117.194 203.294 121.906 199.013 127.906 195.812C130.235 194.403 132.873 193.599 135.594 193.5C138.611 193.578 141.415 195.057 143.188 197.5C144.787 199.7 145.3 202.3 144.5 205.5L147.188 200.188L148.094 197.812C148.294 197.313 148.806 196.994 149.406 197.094L160.5 199.188C154.7 212.487 148.988 225.906 143.688 239.406C143.187 240.806 142.987 242.087 143.188 243.188C143.788 246.288 145.6 246.313 148.5 243.312L150 242.312L155.688 236C159.488 231.3 162.906 226.388 165.906 221.188L177.188 201.188C177.376 200.936 177.685 200.812 178 200.812L187.688 201.312C188.661 202.417 189.195 203.84 189.188 205.312C189.288 205.913 189.587 205.994 190.188 205.594L194 202.812C196.675 201.549 199.553 200.758 202.5 200.5C205.025 200.463 207.489 201.285 209.5 202.812C211.1 204.412 211.694 206.406 211.594 208.406C211.394 209.606 211.794 209.713 212.594 208.812L215.688 205.312C220.688 201.112 226.387 199.8 232.688 201.5C234.888 202.8 236 204.787 236 207.188C236.1 210.888 235.288 214.406 233.688 217.906C230.205 224.93 226.366 231.773 222.188 238.406C220 241.815 218.158 245.414 216.688 249.188C216.088 251.088 216.612 251.613 218.312 250.812C221.07 249.689 223.484 247.849 225.312 245.5C226.854 244.68 228.214 243.545 229.312 242.188C236.471 234.776 242.477 226.353 247.188 217.188C250.759 210.219 254.485 203.331 258.312 196.5L259.688 193.5C259.887 193.2 260.194 193.094 260.594 193.094L274.188 193.312C271.741 197.871 269.38 202.453 267.094 207.094C266.994 207.394 267.013 207.5 267.312 207.5C269.876 204.961 272.941 202.973 276.312 201.688C280.17 200.613 284.275 201.217 287.688 203.312C289.487 205.412 290.787 207.888 291.688 210.688C291.787 211.287 292.287 211.688 292.688 211.688L297 211.406C299.4 211.506 301.7 211.106 304 210.406C304.3 210.306 304.487 209.988 304.688 209.688C313.262 195.816 322.961 182.69 333.688 170.406C339.788 163.406 345.187 158.006 349.688 154.406C352.987 151.806 356.4 150.113 360 149.312C361.341 148.998 362.748 149.114 364 149.688C366.6 152.688 367.613 155.8 366.812 159C364.328 168.075 359.159 176.206 352 182.312C346.3 187.512 340.088 192.287 333.688 196.688C331.888 197.888 332.087 198.306 334.188 197.906C337.387 197.406 340.012 198.187 341.812 200.188C343.213 201.788 344.094 204.013 344.594 206.812C345.094 210.312 344.794 213.806 343.594 217.406C343.394 218.206 343.606 218.513 344.406 218.312L349 217C349.77 216.932 350.42 216.413 350.688 215.688C353.455 203.837 362.295 194.331 373.906 190.688C377.506 189.487 380.888 189.5 384.188 190.5C386.787 192.9 387.4 195.812 386 199.312C384.621 202.78 382.349 205.799 379.406 208.094C375.606 210.894 371.606 213.312 367.406 215.312C366.994 215.462 366.643 215.725 366.406 216.094C366.206 216.594 366.287 217.1 366.688 217.5C366.988 217.8 367.494 217.994 368.094 218.094C369.694 218.394 371.487 218.406 373.688 218.406C373.845 218.406 373.999 218.468 374.094 218.594L374.188 218.906L373.5 224.406C373.5 224.706 373.306 225 372.906 225L370.812 225.688C365.412 227.188 360.606 229.587 356.406 233.188C353.54 235.529 351.426 238.657 350.312 242.188C349.746 243.801 349.686 245.553 350.188 247.188C350.887 249.487 352.687 250.2 355.688 249.5C359.206 248.105 362.479 246.103 365.312 243.594C371.412 238.294 376.294 232.713 380.094 226.312C381.525 223.742 382.78 221.068 383.812 218.312L387.188 210L387.688 207.812L390.5 200.812C391.116 200.018 391.621 199.119 392 198.188L402 172.812L409 155.312L411.188 149.594C411.287 149.094 411.687 148.594 412.188 148.594L418.188 147.812L423.5 147L387.5 239.812C387.214 240.477 387.185 241.217 387.406 241.906C387.606 242.506 388.106 242.688 388.906 242.688C389.406 242.788 389.906 242.613 390.406 242.312C391.787 241.404 392.902 240.142 393.688 238.688C397.487 235.588 399.787 232.713 400.688 230.312L420 178L431.594 146.312C431.694 146.012 432.012 145.688 432.312 145.688L442.5 144.188ZM447.312 144.188C447.913 144.088 448.4 144.112 449 144.312C450.6 146.012 451.312 148.1 451.312 150.5C451.013 156.3 449 161.312 445 165.312C444.9 165.512 444.788 165.5 444.688 165.5L444.312 165.312C443.713 164.712 443.012 164.3 442.312 164C442.113 164 442 163.888 442 163.688C443.7 160.687 444.094 157.688 443.094 154.688C442.494 152.787 442.312 151.488 442.312 150.688C442.582 148.308 443.785 146.142 445.688 144.688C446.287 144.388 446.812 144.188 447.312 144.188ZM144.094 311.688L146.5 312.312C148.944 313.109 151.037 314.731 152.406 316.906C152.606 317.206 152.606 317.487 152.406 317.688C151.306 319.388 150.106 319.594 148.906 318.594L147.094 317C145.294 315.8 143.506 315.812 141.906 316.812C140.606 317.613 139.713 318.794 139.312 320.594C138.412 324.194 140 326.687 144 328.188C146 328.888 148.3 329.094 151 328.594C151.3 328.494 151.712 328.606 151.812 328.906C152.112 329.206 152.094 329.5 152.094 330L152.312 331C152.713 332.2 152.294 333 151.094 333L149.906 333.094C145.106 333.594 140.906 332.1 137.406 328.5C135.006 326.1 134.012 323.5 134.312 320.5C134.522 317.782 135.852 315.272 138 313.594C139.7 312.094 141.7 311.512 144 311.812L144.094 311.688ZM373.312 313.812C374.613 313.613 375.594 313.806 376.594 314.406C379.626 316.368 381.374 319.8 381.188 323.406C380.987 328.106 378.388 331.106 373.188 332.406C369.787 333.206 366.2 333.887 362.5 334.188L362.188 334.188C361.987 334.087 362 333.906 362 333.906L362 315.906C362 315.606 362.294 315.288 362.594 315.188L373.312 313.812ZM171.312 316.688C172.812 316.787 174.413 317.3 175.812 318C181.713 320.8 184.394 327.1 182.094 332C179.694 337 172.988 338.713 167.188 335.812C161.288 333.012 158.506 326.813 160.906 321.812C162.706 318.113 166.912 316.187 171.312 316.688ZM352.594 317C352.894 317 353.112 317.106 353.312 317.406C353.461 318.166 353.461 318.928 353.312 319.688C353.313 319.988 352.988 320.312 352.688 320.312C351.088 320.712 348.3 321.1 344.5 321.5C342.5 321.7 342.094 322.7 343.094 324.5C343.238 324.75 343.524 324.909 343.812 324.906C346.513 324.706 349.212 324.494 351.812 324.094C353.313 323.894 353.806 324.487 353.406 325.688L353.406 326.688C353.506 327.488 353.2 328 352.5 328C350.6 328.2 348.688 328.412 346.688 328.812L344.594 328.906C342.494 329.106 342.094 330.387 343.094 332.688C343.219 332.955 343.518 333.122 343.812 333.094L352.188 332.094C352.588 331.994 353 332.206 353 332.406C353.3 333.006 353.206 334.006 352.906 335.406C352.706 335.806 352.306 336.188 351.906 336.188L336.906 338L336.594 337.906L336.406 337.594L336.594 319.094C336.594 318.794 336.794 318.5 337.094 318.5L352.594 317ZM190.594 318.594L190.688 318.594C190.788 318.394 191.312 318.394 191.812 318.594L192.812 318.688C194.513 318.488 195.812 319.2 196.812 320.5C199.38 323.572 201.907 326.685 204.406 329.812C205.206 330.712 205.594 330.606 205.594 329.406L205.812 320.188L206 319.812L206.5 319.688L210.312 320C210.712 320 211 320.294 211 320.594L210.5 338.312C210.5 338.612 210.3 338.906 210 338.906C207.8 339.506 205.894 338.888 204.594 337.188L195.906 326.688C195.606 326.387 195.5 326.512 195.5 326.812L195 337.5L194.812 337.906C194.712 338.106 194.6 338.094 194.5 338.094L190.5 337.812C190.3 337.812 190.094 337.488 190.094 337.188C190.294 331.787 190.5 326.406 190.5 320.906L190.406 319.594C190.306 319.094 190.394 318.694 190.594 318.594ZM318.312 320C321.408 320.125 324.456 320.803 327.312 322C327.613 322.1 327.812 322.3 327.812 322.5C327.813 322.8 327.794 322.987 327.594 323.188C326.994 323.888 326.413 324.394 325.812 324.594C325.312 324.894 324.688 324.894 323.688 324.594C321.869 324.076 319.975 323.906 318.094 324.094C317.194 324.194 316.588 324.494 316.188 325.094C315.587 325.994 316.112 326.8 317.812 327.5C319.113 328 320.387 328.312 321.688 328.312C324.288 328.313 326.294 329.087 327.594 330.688C328.894 332.088 329.2 334.094 328.5 336.094C327.6 339.094 325.413 340.812 321.812 341.312C317.613 341.813 313.806 340.7 310.406 338C310.206 337.8 310.087 337.488 310.188 337.188C310.487 336.087 311.1 335.306 312 334.906C312.323 334.733 312.718 334.766 313 335C315.5 336.8 318.094 337.312 321.094 336.812C321.894 336.512 322.587 336.313 323.188 335.812C324.388 335.012 324.494 334.188 323.594 333.188C322.594 332.187 321.494 331.812 320.094 331.812C316.694 331.812 314.106 331.006 312.406 329.406C311.306 328.506 310.694 327.4 310.594 326C310.489 324.5 311.143 323.038 312.312 322.094C313.912 320.694 315.812 320.094 318.312 320.094L318.312 320ZM221.312 320.5C225.731 320.505 230.131 320.839 234.5 321.5C238.8 322.3 241.5 324.812 242.5 329.312C243.7 334.413 242.088 337.887 237.688 339.688C234.588 340.988 231.094 341.4 227.094 341L223.812 340.812L220.812 340.5C220.513 340.5 220.312 340.206 220.312 339.906L220.812 321.094C220.813 320.794 221.012 320.594 221.312 320.594L221.312 320.5ZM295.188 321.188C295.187 321.188 299.406 321.188 299.406 321.188C299.806 321.188 300.094 321.512 300.094 321.812L299.906 340.406C299.906 340.706 299.8 341.094 299.5 341.094C298.4 341.394 297.188 341.388 296.188 341.188C295.787 341.088 295.606 340.888 295.406 340.688L285.406 327.906C284.806 327.206 284.5 327.287 284.5 328.188L284.5 340C284.5 340.5 284.1 341 283.5 341L280.312 341C280.012 341 279.688 340.8 279.688 340.5L279.688 321.906L279.812 321.5L280.188 321.406L285.188 321.406C285.488 321.406 285.794 321.606 286.094 321.906L293.906 331.594C294.606 332.394 294.906 332.188 294.906 331.188L294.688 321.688L294.812 321.312L295.188 321.188ZM268.188 321.312C268.498 321.329 268.79 321.524 268.906 321.812C269.106 322.913 269.106 323.994 268.906 325.094C268.906 325.394 268.613 325.594 268.312 325.594L257.312 325.812L256.5 326.188C256 327.088 256 328.012 256.5 328.812C256.6 329.113 256.912 329.188 257.312 329.188L268.312 328.906C268.613 328.906 268.812 329.206 268.812 329.406L269 332.688L268.812 333.094C268.812 333.294 268.6 333.312 268.5 333.312L257.094 333.812L256.688 334C256.488 334.1 256.5 334.212 256.5 334.312L256.688 336.688C256.688 336.988 257.013 337.187 257.312 337.188L268.188 336.812C268.345 336.812 268.499 336.874 268.594 337L268.688 337.312L268.688 340.688C268.687 340.988 268.488 341.188 268.188 341.188L251.594 341.406L251.188 341.312L251.094 340.906L251.188 322.312C251.287 321.812 251.6 321.5 252 321.5L268.188 321.312ZM471.688 397L468.5 695.188C468.5 695.188 463.206 714.7 432.406 730C401.906 745.2 346.406 756.313 261.906 756.312C92.1062 756.312 46.4999 694.594 46.5 694.594L45.9062 397.594L46 397.5C46 397.5 124.488 435.813 254.688 435.812C384.787 435.812 471.687 397 471.688 397ZM124.906 136.594C123.806 136.694 122.706 136.912 121.406 137.312C116.487 138.946 112.012 141.682 108.312 145.312C101.664 151.663 96.1389 159.103 92 167.312C91.7 168.012 92 168.3 93 168L97 168C106.726 166.736 115.793 162.35 122.812 155.5C125.169 153.19 127.086 150.482 128.5 147.5L131 143.5C131.3 140 130.094 137.906 127.594 136.906C126.794 136.706 125.913 136.587 124.812 136.688L124.906 136.594ZM356.094 158.594L355.188 158.906C348.687 164.006 343.3 170.094 339 177.094C336.5 181.094 334.106 185.094 331.906 189.094C331.306 190.094 331.5 190.313 332.5 189.812C337.8 186.812 342.312 182.813 345.812 177.812C348.813 174.412 351.4 170.813 353.5 166.812C355.3 164.513 356.587 162.513 357.188 160.812C357.787 159.312 357.394 158.594 356.094 158.594ZM376.688 196.594C375.588 196.394 374.5 196.687 373.5 197.188C369.2 199.287 366.388 202.8 365.188 207.5C364.887 209 365.5 209.912 367 210.312C367.3 210.612 367.594 210.613 368.094 210.312C371.892 208.033 375.075 204.823 377.312 201C379.713 198.4 379.487 196.894 376.688 196.594ZM140.5 201.188C139.8 201.088 138.994 201.194 138.094 201.594C135.494 202.594 132.9 204.606 130.5 207.406C124.2 215.006 119.913 223.4 117.812 233C117.312 234.9 117.188 236.906 117.188 238.906C117.119 240.09 117.473 241.241 118.188 242.188C119.288 243.388 120.7 243.3 122.5 242L124 241.188L129 236C134.5 228.181 138.564 219.432 141 210.188C141.7 208.787 142.294 207.413 142.594 205.812C142.894 204.412 142.788 203.306 142.188 202.406C141.688 201.806 141.2 201.388 140.5 201.188ZM436.531 203.906L436.312 204.188L422 233.312L422 233.688C422.1 233.888 422.206 234 422.406 234L426.188 234.312C428.524 234.729 430.881 233.635 432.094 231.594C435.194 226.694 436.588 221.5 436.188 216C436.787 212.3 436.988 208.313 436.688 204.312C436.687 204.068 436.64 203.964 436.531 203.906ZM327.688 208.094C326.872 208.104 326.087 208.245 325.312 208.5C322.312 209.4 319.906 211.006 317.906 213.406C312.746 220.964 308.307 229.001 304.688 237.406C303.187 241.006 302.288 244.5 302.188 248C302.188 249.8 302.687 251.1 303.688 252C305.287 253.3 307 252.913 309 250.812C318 242.36 324.709 231.751 328.5 220C330.5 216.7 331.487 214.488 331.688 213.188C331.987 210.788 331.288 209.2 329.688 208.5C329.087 208.2 328.488 208.094 327.688 208.094ZM272 212C271.2 211.9 270.188 212.094 269.188 212.594C266.887 213.594 264.8 215.394 263 218.094C256.337 227.817 250.776 238.241 246.406 249.188C245.944 250.239 245.944 251.449 246.406 252.5C247.506 255 249.513 255.5 252.312 254C260.112 248.7 265.906 241.813 269.906 233.312C271.529 229.803 272.92 226.184 274.094 222.5C275.01 220.937 275.607 219.206 275.812 217.406C276.012 215.606 275.506 214.094 274.406 213.094C273.706 212.494 273 212 272 212ZM371.812 318.406C370.411 318.449 369.039 318.82 367.812 319.5C367.513 319.7 367.188 320.006 367.188 320.406L367.188 328.812C367.183 329.054 367.357 329.264 367.594 329.312C369.394 329.412 371.094 329.188 372.594 328.688C374.235 328.239 375.657 327.233 376.594 325.812C377.894 323.713 377.306 321.594 374.906 319.594C374.006 318.794 373.013 318.406 371.812 318.406ZM169.75 321.25C167.969 321.456 166.419 322.406 165.594 323.906C164.194 326.606 165.612 330.206 168.812 331.906C171.912 333.606 175.694 332.794 177.094 330.094C178.594 327.394 177.2 323.794 174 322.094C173.2 321.694 172.394 321.413 171.594 321.312C170.969 321.212 170.344 321.181 169.75 321.25ZM226.812 325.188C226.513 325.188 226.188 325.512 226.188 325.812L225.906 334.812C225.906 335.412 226.394 335.987 227.094 336.188C228.694 336.387 230.294 336.388 232.094 336.188C234.094 335.887 235.5 335.313 236.5 334.312C237.6 333.213 238.013 331.888 237.812 330.188C237.513 328.788 236.913 327.713 235.812 326.812C234.713 325.912 233.2 325.312 231.5 325.312L226.812 325.188Z" fill="#c2d047" fill-rule="nonzero" opacity="1" stroke="none"/>
</g>
</svg>
