<?xml version="1.0" encoding="UTF-8" standalone="no"?>
<!DOCTYPE svg PUBLIC "-//W3C//DTD SVG 1.1//EN" "http://www.w3.org/Graphics/SVG/1.1/DTD/svg11.dtd">
<!-- Created with Vectornator (http://vectornator.io/) -->
<svg height="100%" stroke-miterlimit="10" style="fill-rule:nonzero;clip-rule:evenodd;stroke-linecap:round;stroke-linejoin:round;" version="1.1" viewBox="0 0 519 800" width="100%" xml:space="preserve" xmlns="http://www.w3.org/2000/svg" xmlns:vectornator="http://vectornator.io" xmlns:xlink="http://www.w3.org/1999/xlink">
<defs/>
<g id="zlata" vectornator:layerName="zlata">
<path d="M473.2 92L473 97.8C462.701 101.164 452.258 104.067 441.7 106.5C412.497 113.299 382.86 118.077 353 120.8C330.56 122.953 308.041 124.187 285.5 124.5C249.814 124.668 214.132 123.767 178.5 121.8C151.869 119.703 125.343 116.434 99 112C78.8 108.7 60.7 104 44.5 97.7L44.5 92.5C44.9 92 45.3 91.9 45.7 92.2L46.5 92.6C59 97.6 72.8 101.6 87.8 104.3C125.3 111 161.8 115.3 197 117.3C202 117.5 214 117.7 233.5 117.7L253.5 118C284.8 118.8 316 117.9 347.3 115.3C366.084 113.721 384.775 111.184 403.3 107.7C420.8 104.4 438.3 100.9 455.6 96.9C458.6 96.2 472.9 91.8 473.2 92Z" fill="#bd974f" fill-rule="nonzero" opacity="1" stroke="none" vectornator:layerName="ciara"/>
<path d="M190.8 426.7C190.8 389.973 220.573 360.2 257.3 360.2C294.027 360.2 323.8 389.973 323.8 426.7C323.8 463.427 294.027 493.2 257.3 493.2C220.573 493.2 190.8 463.427 190.8 426.7Z" fill="#bd974f" fill-rule="nonzero" opacity="1" stroke="none" vectornator:layerName="path"/>
<path d="M50 658.4L49 658.8L47.3 660C47.5 660.6 47.5 661.2 47.5 661.8L47.5 663.3C48.3 662.4 49.4 662.3 50.8 662.6C51.1 662.6 51.4 662.6 51.7 662.3C52 662.1 52.1 661.8 52.1 661.5C52.1 659.4 51.3 658.3 49.9 658.4L50 658.4ZM61 659C60.8 659 60.7 659 60.6 659.3L58.3 662.7L58.1 663.6C58.2354 666.039 58.7762 668.439 59.7 670.7C61.7 667.4 62.1 663.6 61.1 659.3L60.9 659L61 659ZM59.7 670.8C59.4 671.8 59 671.8 58.7 670.7C57.7 668.4 56.7 667.2 55.6 667C54.4 666.7 53.1 667.4 51.6 669C51.3967 669.143 51.2541 669.357 51.2 669.6C51.2 670.2 51.4 670.3 52 670C53.8 669.1 55.2 669.2 56.3 670.3C57.2 671.1 57.6 672.3 57.6 673.7C57.6 676.5 56.3 678.7 53.6 680C53.2 680.1 53.2 680.2 53.6 680.3C55.0419 680.313 56.3791 679.549 57.1 678.3C58.3 676.5 58.8 676.6 58.7 678.3C58.7 678.7 58.7 679 58.4 679.4C57.5 681 57.7 682.2 59 683.2C59.3 683.4 59.4 683.2 59.3 682.9C58.7 679.6 59.3 679.4 61.1 682.1L61.4 682.4L61.7 682.4L61.5 681.8C59.5 678.4 59.6 675.5 62.1 673C62.6 672.5 63.1 672.2 63.7 672.1C64.4 672.1 65.1 672.1 65.7 672.3C66 672.3 66.1 672.3 66 672C64.8 668.6 62.7 668.1 59.7 670.7L59.7 670.8ZM462.3 661.7C462.1 661.7 461.8 661.7 461.6 662.2L461.2 663L460.1 667C460.1 667.3 459.8 667.5 459.5 667.7C458.1 668.5 457.1 669.7 456.6 671.3C456.5 671.7 456.6 672 456.8 672.1C457 672.2 457.2 672.1 457.5 671.7C457.8 671.4 458.2 671.1 458.7 671.1C459.1 671.1 459.5 671.2 459.7 671.6C461.3 674.6 461.2 677.5 459.3 680.3C459 680.6 458.9 680.8 459 681L459.2 681L459.6 680.8L462.3 678.8C462.9 678.4 463.2 677.8 463 677.3C461.4 672.3 462.3 667.9 465.7 664.3C467 662.8 466.3 662.3 463.6 663L463 663C462.832 662.885 462.723 662.702 462.7 662.5C462.7 662 462.4 661.7 462.3 661.7ZM77.7 671.4L77.3 671.5C75.7 672.8 75 674.4 75.3 676.3C75.8 679.7 76 682.5 76 684.4C76 684.7 75.7 685 75.4 685C74.7 685 74.4 684.6 74.6 683.7C74.9 680.5 74.2 677.7 72.3 675.2C72 675 71.8 674.8 71.4 674.7C68.7 673.8 67.4 674.7 67.4 677.5C67.4 678.3 67.6 678.7 68 678.8C68.4 679 68.9 678.4 69.5 677.3C69.7 677 69.9 676.8 70.3 676.8C70.6 676.7 70.9 676.8 71.1 676.9C72.4741 677.972 73.3429 679.565 73.5 681.3C73.5 681.7 73.5 682.1 73.7 682.6C73.9 683.7 73.6 684.1 72.7 683.7L71.7 683.7C70.7 683.8 71.1 684.3 72.9 685.2C73.2 685.3 73.3 685.6 73.2 685.9C72.5 687.6 71.5 688.4 70.2 688.3C69 688.1 68.9 688.3 69.9 689.1C70.9 689.8 71.9 689.6 72.7 688.7C73.4 688 73.9 687.3 74.3 686.5C74.5 686.2 74.8 686 75.1 686.1C75.8 686.1 76.1 686.6 76 687.5C75.7 689.8 75.6 691.7 75.6 693.2C75.6 693.5 75.7 693.8 76 694C76.7 694.5 77 694.4 77 693.6L76.8 692.7L77.3 688.6C77.3 688.2 77.5 688 77.8 688C78.8 688 79.3 688.5 79.3 689.8C79.3173 691.454 79.9195 693.048 81 694.3C81.7 695.2 82.4 695.5 83.3 695.4C84.3 695.4 85.1 694.6 85.4 693.3C85.6 692.7 85.4 692.6 85 693C83.1 694.6 81.6 693.5 80.7 690C80.5 689.2 80.7 689 81.4 689.2C82.9 689.8 83.7 689.8 83.8 689.4C83.9 689.1 83.8 688.8 83.4 688.7L81.4 687.9C81.1 687.8 80.9 687.5 80.9 687.3C80.8 685.6 81.3 684.4 82.6 683.8C84.1 683.1 85.2 683.6 85.9 685.5C86.4 686.8 86.9 686.7 87.2 685.5C87.5 684.8 87.5 683.8 87.4 682.5C87.2 680.4 86.4 679.5 84.7 679.8C83.9 680 83 680.5 82.2 681.3C80.7895 682.706 79.7871 684.469 79.3 686.4C79.3 686.7 79 686.9 78.7 686.9C77.7 686.7 77.3 686 77.5 684.9L79.5 676.8C79.9 675.3 79.5 673.6 78.1 671.7C78 671.5 77.9 671.5 77.7 671.4ZM448.2 671.9C447.9 671.7 447.8 671.7 447.8 672.1C447.8 673.1 447.8 674.2 447.4 675.3C447 676.5 447.2 677.5 448.1 678.4C448.7 679.2 448.5 679.4 447.6 679.2C445 678.5 443.6 679.7 443.2 682.9C443.1 684.3 443.4 684.4 444.2 683.3C446 681 447.5 681 448.6 683.3C448.8 683.5 448.8 683.8 448.6 684.1C448.6 684.4 448.4 684.6 448.1 684.7C446.1 685.8 445.5 686.5 446.5 686.9L447.5 686.8L449.2 686C449.5 685.8 449.6 686 449.5 686.3C448.891 687.897 447.974 689.358 446.8 690.6L446.6 690.9C446.4 691.5 446.5 691.6 447 691.2C447.8 690.5 448.6 689.6 449.3 688.7C449.7 688.2 450 688 450.3 687.9C450.8 687.6 451.1 688.2 450.9 689.6C450.9 690.1 451.1 690.1 451.5 689.8C452.2 689.3 452.3 688.6 451.6 687.8C451.489 687.655 451.42 687.482 451.4 687.3C451.4 686.8 451.7 686.8 452.4 687.3C453.4 687.9 453.9 687.9 453.5 687.3C453.5 687.1 453.3 686.9 453 686.7C451.3 685.4 451.4 684.3 453.5 683.4L454.2 682.8C455.2 681 454.5 681 451.9 682.7C451.2 683.1 450.9 682.9 450.9 682.1C451.4 678.5 453.2 676.8 456.3 676.7L456.5 676.6L456.5 676.3C455.1 673.5 453.4 673.5 451.5 676.3C451.3 676.7 451.1 676.7 451 676.3C450.4 674.3 449.5 672.8 448.2 671.9ZM103.1 679.3C102.9 679.3 102.8 679.5 102.6 679.8L100.4 684.8C100.315 685.128 100.315 685.472 100.4 685.8L101.4 694.9C101.4 695.2 101.3 695.5 101 695.6C100.2 695.9 99.8 695.4 99.8 694.2C99.9 690.8 98.8 688.2 96.3 686.4C95 685.4 93.7 685.1 92.3 685.6C90.4 686.3 90 687.9 90.9 690.6C91.3 691.8 91.9 691.9 92.5 690.8C93.8 688.8 95.1 688.5 96.5 689.9C97.5 690.9 98.1 692.4 98.2 694.2C98.2 694.3 98.2 694.4 98 694.5L97.7 694.6L97.1 694.5C96.7549 694.313 96.3843 694.179 96 694.1C94.4 694.1 94.2 694.6 95.4 695.6L96.4 696C97.9 696.1 98.4 696.9 97.7 698.2C97 699.6 95.8 700 94.2 699.6C93.8 699.5 93.7 699.6 93.9 699.9C94.5 701.2 95.7 701.5 97.4 700.7C98.3 700.3 99 699.4 99.6 698C99.8 697.6 99.9 697.4 100.2 697.3C100.5 697.2 100.8 697.3 101.1 697.4C101.3 697.6 101.4 697.9 101.4 698.4L101.1 702.9C101.1 703.3 101.1 703.6 101.4 703.9C102.2 704.5 102.7 703.5 102.9 700.9C102.9 700.1 103 699.4 103.2 698.7C103.3 697.7 103.8 697.7 104.5 698.7L104.9 699.8C105.3 701.8 105.9 703.5 106.9 704.7C108 706.4 109.5 706.6 111.1 705.2L111.6 704.6C112.2 703.3 111.9 703.2 110.6 704C110.4 704.2 110 704.2 109.8 704.2C107.5 703.6 106.4 702.2 106.3 699.8C106.3 699.7 106.3 699.5 106.5 699.4L106.8 699.4L108.5 699.6L109.5 699.6C110.2 699.4 110.3 699 109.8 698.5C109.51 698.278 109.164 698.139 108.8 698.1C105.6 697.7 105.2 696.2 107.5 693.8C109.5 691.8 111.5 691.8 113.6 694.3C114 694.7 114.1 694.6 114.2 694.1C114.5 692 113.9 690.3 112.3 689.1C111.1 688.1 109.9 688.1 108.6 689.1C106.469 690.6 105.057 692.918 104.7 695.5C104.7 695.9 104.7 696.1 104.5 696.3C104.2 697 103.8 697 103.5 696.4C103.291 696.15 103.216 695.815 103.3 695.5L105.6 685.2L105.5 684.3L103.5 679.9C103.4 679.5 103.3 679.3 103.1 679.3ZM428.8 681.3L428.5 682.3C428.5 683.1 428.2 684.3 427.5 685.8C427.3 686.3 427.2 686.9 427.3 687.5L428.7 693C429 694.4 428.8 694.8 428 694.3C427.68 694.115 427.488 693.769 427.5 693.4C427.215 691.397 426.133 689.594 424.5 688.4C424.3 688.2 424 688.1 423.7 688.1C420.6 688.3 419.1 690.1 419.3 693.4C419.3 694.6 419.7 694.7 420.3 693.7C422.7 689.9 424.6 690.1 426.3 694.2C426.3 694.5 426.3 694.8 426 694.9C424.991 695.243 424.045 695.75 423.2 696.4C422.5 697.3 422.5 697.7 423.2 697.7C423.5 697.7 423.7 697.7 424.1 697.4C424.6 697.2 425.1 697 425.7 697C425.8 697 425.9 697 426 697.2L426.1 697.6C425.813 699.657 424.737 701.522 423.1 702.8C422.4 703.4 422.3 703.7 422.9 703.7C423.1 703.7 423.3 703.7 423.4 703.5C425.621 702.086 427.061 699.722 427.3 697.1C427.3 696.7 427.4 696.4 427.6 696.1C427.9 695.9 428.1 695.9 428.4 696.1C428.6 696.3 428.8 696.6 428.8 697L428.8 704C428.8 704 428.8 704.2 429 704.3C429 704.4 429.2 704.5 429.3 704.4C430 704.4 430.3 703.9 430.3 703.3C430.1 699.2 430 696.7 430.2 695.8C430.4 694.8 430.8 694.5 431.3 694.8C431.6 695 431.8 695.4 431.9 695.8C432.138 696.668 432.474 697.507 432.9 698.3C434 699.8 435.3 700.1 436.9 699.3C437.7 698.9 437.6 698.6 436.8 698.5C434.3 698.1 433.1 696.8 433.2 694.5C433.2 694.1 433.4 693.9 433.7 693.7C434.4 693.4 435 692.9 435.7 692.4C436.7 691.4 436.7 691 435.6 691C435.3 691 435 691.2 434.6 691.4C433.2 692.4 432.7 692 433.2 690C433.8 687.7 435.2 686.4 437.5 686.3C437.8 686.3 438.1 686.3 438.5 686.5C439.8 687.4 440.2 687 439.5 685.3C438.8 683.3 437.5 682.9 435.7 684.3C433.248 686.02 431.762 688.806 431.7 691.8C431.7 692.1 431.7 692.5 431.5 692.7C431.2 693.4 430.8 693.4 430.5 692.9C430.3 692.7 430.2 692.4 430.2 691.9C430.324 689.961 430.694 688.046 431.3 686.2L431.3 685.3L429.6 682.2C429.2 681.6 429 681.3 428.8 681.3ZM403.4 687.5C403.2 687.5 403.1 687.5 403.1 687.8C402.61 689.581 401.833 691.269 400.8 692.8C400.7 693.1 400.6 693.5 400.7 693.8C401.298 696.583 401.964 699.35 402.7 702.1C402.7 702.9 402.2 703.1 401.5 702.9C401.3 702.8 401.1 702.5 401 702.2C400.8 700.2 400 698.7 398.4 697.5L397.5 697.2C394.2 697.3 392.9 699.3 393.3 703.2C393.4 703.7 393.6 703.8 393.8 703.2C395.5 700.2 397.3 700 399.2 702.5C400 703.5 399.7 703.9 398.6 703.9C398 703.9 397.5 704.2 396.8 704.5C396.3 704.8 396 705.2 395.9 705.6C395.7 706.5 396.5 706.6 398.3 705.9C398.5 705.8 398.8 705.9 399.1 705.9C399.3 706.1 399.4 706.4 399.4 706.7C399.4 709.4 397.9 711.4 395 712.5C394.7 712.6 394.7 712.8 395 712.9C396 713.3 397 713.2 397.7 712.4C399.3 710.9 400.3 708.9 400.9 706.4C401 705.8 401.2 705.4 401.4 705.2C401.9 704.8 402.4 704.9 403 705.5C403.7 706.2 403.7 707.7 403.3 710C402.9 711.5 403.3 712 404.3 711.7C404.5 711.5 404.7 711.3 404.7 710.9C404.7 709.2 404.7 707.5 404.4 705.9L404.4 704.6C404.6 703.9 405 703.6 405.6 703.9C405.9 704.1 406.2 704.4 406.5 704.9C407.8 707.6 409.7 708.4 412.2 707.2C412.6 707 412.5 706.9 412.2 706.8C407.3 705.4 406.5 703.6 409.9 701.6C410.2 701.4 410.4 701.1 410.4 700.8C410.4 700.2 409.6 700.2 408.3 700.8L407.7 700.7C407.558 700.574 407.484 700.389 407.5 700.2C407.3 698.3 408.1 696.6 409.8 695C411.1 693.8 412.5 694 414.1 695.4C414.7 696 415 695.9 414.9 695.1C414.5 692.6 413.6 691.3 412.1 691.3C411.1 691.3 410.1 691.9 408.9 693C406.95 694.793 405.89 697.354 406 700C406 701.2 405.6 701.9 404.8 702C404.7 702 404.6 702 404.5 701.8C404.374 701.706 404.3 701.557 404.3 701.4C404.3 698.8 404.7 696.1 405.8 693.5C406 692.9 405.9 692.2 405.5 691.5L403.8 687.9C403.7 687.6 403.5 687.5 403.4 687.5Z" fill="#bd974f" fill-rule="nonzero" opacity="1" stroke="none" vectornator:layerName="hviezdy"/>
<path d="M149.3 661C147.3 661 145.7 661.2 144.3 661.8C140.406 663.346 137.525 666.714 136.6 670.8C134.9 677.6 136.9 683.4 142.6 688.3C146.8 691.9 151.5 694.7 156.6 696.7C158.1 697.3 159.2 697.7 159.8 698.1C161.1 698.8 162.1 699.5 162.6 700.1C165 703.4 164.7 705.3 161.8 706C160.4 706.3 158.9 706.1 157.4 705.5C152.6 703.5 148.4 700.3 144.5 695.7C144.1 695.2 143.3 695.1 142.7 695.4L135 699.8C134.8 700 134.6 700.3 134.8 700.5L143.9 717.5C144.1 717.8 144.4 717.9 144.7 717.9C147.4 717.2 149.8 717.3 152.1 717.9L163.4 721.4C172 723.8 178.7 721.9 183.6 715.7C184.898 713.946 185.693 711.872 185.9 709.7C186.6 702 183.4 696.4 176.4 692.8C169.7 689.4 164.5 686.6 160.8 684.3C159.606 683.642 158.58 682.718 157.8 681.6C155.8 679 156.4 677.4 159.4 676.9C160.8 676.7 162.4 676.9 164 677.4C169.4 679.3 174.3 682.4 178.6 686.7C178.8 686.9 179.1 687 179.4 686.8L186.8 682.1C187.1 681.9 187.2 681.6 187 681.3L178 665.8C177.8 665.445 177.404 665.247 177 665.3C173 666.1 169.4 665.9 166.1 664.6C160.756 662.42 155.068 661.201 149.3 661ZM364.9 667C361.9 667 358.9 667.4 356.3 668C351.345 669.135 346.34 670.036 341.3 670.7C336.902 671.248 332.444 671.079 328.1 670.2C327.8 670.2 327.5 670.3 327.4 670.6L323.4 682.6C323.4 682.9 323.4 683.3 323.6 683.5C323.9 683.8 324.2 683.8 324.6 683.5L325.6 683.3C329.1 683.7 331.1 685.5 331.5 688.8C331.8 691.1 331.8 697.1 331.6 707C331.6 712.1 329 715.3 324 716.6C323.9 716.6 323.8 716.6 323.7 716.8L323.7 717.2L326.9 728.7C326.9 728.7 326.9 728.9 327.1 729L327.5 729C335.5 726.4 344.1 725.1 353.3 725.3C353.8 725.3 354.3 725 354.4 724.5L357.7 715.1L357.6 714.5C357.496 714.32 357.307 714.207 357.1 714.2C352.3 713.9 349.7 711.3 349.6 706.6C349.6 706.3 349.8 706 350.1 706C356.5 705.3 361.8 704 365.9 702.2C370.3 700.2 373.9 697.3 376.7 693.4C379.229 689.718 380.298 685.227 379.7 680.8C379.2 675.1 376.9 671.1 372.7 668.6C370.7 667.4 368.1 666.9 364.9 667ZM357.6 681.3C358.7 681 359.8 681.3 360.9 682.2C362.5 683.6 362.9 685.2 362.1 686.9C361.446 688.194 360.394 689.246 359.1 689.9C356.44 691.487 353.397 692.317 350.3 692.3C350.132 692.339 349.956 692.288 349.834 692.166C349.712 692.044 349.661 691.868 349.7 691.7L349.7 684C349.7 683.7 349.9 683.4 350.2 683.4L357.6 681.4L357.6 681.3ZM317.7 671.2C311.039 673.106 304.038 673.516 297.2 672.4C296.9 672.4 296.6 672.6 296.5 672.8L293 684.7L293.1 685.4C293.2 685.6 293.4 685.8 293.7 685.8C296.6 686.4 298.3 687.6 298.9 689.5L299 695L299 709.8C299 711.7 298.7 713.1 298.2 714.1C297.4 715.6 296.2 716.5 294.6 717.1C290.9 718.3 288.1 717.6 286.3 715.1C285.4 713.8 285 712.1 285 709.6L285 694.2C285 691.8 285.3 690 286 688.9C287 687.1 288.6 686.1 291 685.9C291.2 685.9 291.4 685.9 291.5 685.7C291.6 685.6 291.7 685.4 291.6 685.2L289 673.4C289 673.2 288.7 673.1 288.5 673.1C278.768 674.993 268.726 674.547 259.2 671.8C259.1 671.8 259 671.9 259 672.1L256 684.3L256.1 684.7L256.5 684.9C260.5 685.7 263 687.8 263.8 691L264.1 699.5L264.2 714.8C264.2 719.1 265.5 722.8 268.1 725.8C270.2 728.3 273.4 730.1 277.6 731.3C282.1 732.5 286.7 732.9 291.5 732.5C297.9 731.9 303 729.9 306.9 726.5C311.2 722.6 313.4 718.1 313.5 713L313.9 696.8L313.9 693.8C313.9 692 314.1 690.4 314.6 688.8C314.899 687.305 315.804 686.002 317.1 685.2C318.503 684.424 320.102 684.077 321.7 684.2C321.8 684.2 321.9 684.2 322 684L322 683.7L318.5 671.7C318.5 671.5 318.4 671.3 318.2 671.2C318.071 671.154 317.929 671.154 317.8 671.2L317.7 671.2ZM222.4 671.3C212.649 670.609 203.22 674.946 197.4 682.8C192.88 689.113 191.549 697.169 193.8 704.6C195.52 712.734 199.965 720.036 206.4 725.3C211.6 729.3 216.8 731.3 222.2 731C225.849 730.96 229.478 730.456 233 729.5C244.067 726.385 251.862 716.489 252.3 705C253.1 697.4 251.2 690.6 246.7 684.5C241.078 676.578 232.106 671.704 222.4 671.3ZM216.9 688.3C218.236 688.264 219.555 688.611 220.7 689.3C227.549 693.404 232.371 700.183 234 708C234.5 710.1 233.6 711.9 231.5 713.3C229.445 714.508 226.879 714.43 224.9 713.1C220.887 710.573 217.446 707.235 214.8 703.3C212.8 700.5 211.7 698.4 211.3 697.3C210.4 694.6 211.2 692.1 213.5 689.8C214.5 688.8 215.7 688.3 216.9 688.3Z" fill="#bd974f" fill-rule="nonzero" opacity="1" stroke="none" vectornator:layerName="path"/>
</g>
</svg>
