<?xml version="1.0" encoding="UTF-8" standalone="no"?>
<!DOCTYPE svg PUBLIC "-//W3C//DTD SVG 1.1//EN" "http://www.w3.org/Graphics/SVG/1.1/DTD/svg11.dtd">
<!-- Created with Vectornator (http://vectornator.io/) -->
<svg height="100%" stroke-miterlimit="10" style="fill-rule:nonzero;clip-rule:evenodd;stroke-linecap:round;stroke-linejoin:round;" version="1.1" viewBox="0 0 519 800" width="100%" xml:space="preserve" xmlns="http://www.w3.org/2000/svg" xmlns:vectornator="http://vectornator.io" xmlns:xlink="http://www.w3.org/1999/xlink">
<defs/>
<g id="zlata-stencil" vectornator:layerName="zlata stencil">
<path d="M0 0L0 800L519 800L519 0L0 0ZM257.312 360.188C294.039 360.188 323.813 389.961 323.812 426.688C323.812 463.414 294.039 493.187 257.312 493.188C220.586 493.188 190.812 463.414 190.812 426.688C190.812 389.961 220.586 360.188 257.312 360.188ZM49.9062 658.406L50 658.406L49.9375 658.438C51.3075 658.366 52.0938 659.424 52.0938 661.5C52.0938 661.8 51.9875 662.112 51.6875 662.312C51.3875 662.613 51.1125 662.594 50.8125 662.594C49.4125 662.294 48.3 662.412 47.5 663.312L47.5 661.812C47.5 661.213 47.5125 660.6 47.3125 660L49 658.812L49.9375 658.438C49.9214 658.438 49.9225 658.405 49.9062 658.406ZM60.9062 659L61 659C60.9658 659 60.9664 659.061 60.9375 659.062L61.0938 659.312C62.0938 663.613 61.6875 667.388 59.6875 670.688C62.6875 668.087 64.8 668.6 66 672C66.1 672.3 65.9875 672.312 65.6875 672.312C65.0875 672.113 64.3875 672.094 63.6875 672.094C63.0875 672.194 62.5938 672.5 62.0938 673C59.5938 675.5 59.5 678.412 61.5 681.812L61.6875 682.406L61.4062 682.406L61.0938 682.094C59.2937 679.394 58.7125 679.606 59.3125 682.906C59.4125 683.206 59.3 683.388 59 683.188C57.7 682.187 57.5062 681.006 58.4062 679.406C58.7063 679.006 58.6875 678.713 58.6875 678.312C58.7875 676.612 58.2938 676.512 57.0938 678.312C56.3728 679.561 55.0356 680.325 53.5938 680.312C53.1938 680.213 53.1937 680.1 53.5938 680C56.2937 678.7 57.5938 676.487 57.5938 673.688C57.5937 672.287 57.2125 671.113 56.3125 670.312C55.2125 669.213 53.8 669.1 52 670C51.4 670.3 51.1875 670.194 51.1875 669.594C51.2416 669.351 51.3904 669.143 51.5938 669C53.0938 667.4 54.3937 666.7 55.5938 667C56.6938 667.2 57.6875 668.387 58.6875 670.688C58.9875 671.787 59.3875 671.813 59.6875 670.812L59.6875 670.688C58.7637 668.426 58.2292 666.033 58.0938 663.594L58.3125 662.688L60.5938 659.312C60.6767 659.064 60.7976 659.07 60.9375 659.062L60.9062 659ZM149.312 661C155.081 661.201 160.749 662.414 166.094 664.594C169.394 665.894 173 666.113 177 665.312C177.404 665.26 177.8 665.458 178 665.812L187 681.312C187.2 681.613 187.112 681.894 186.812 682.094L179.406 686.812C179.106 687.012 178.794 686.888 178.594 686.688C174.294 682.387 169.4 679.306 164 677.406C162.4 676.906 160.806 676.706 159.406 676.906C156.406 677.406 155.812 678.994 157.812 681.594C158.593 682.712 159.619 683.654 160.812 684.312C164.512 686.613 169.706 689.413 176.406 692.812C183.406 696.413 186.606 701.987 185.906 709.688C185.699 711.859 184.892 713.934 183.594 715.688C178.694 721.887 172.006 723.806 163.406 721.406L152.094 717.906C149.794 717.306 147.388 717.206 144.688 717.906C144.388 717.906 144.106 717.8 143.906 717.5L134.812 700.5C134.612 700.3 134.8 700.013 135 699.812L142.688 695.406C143.288 695.106 144.1 695.188 144.5 695.688C148.4 700.287 152.606 703.5 157.406 705.5C158.906 706.1 160.413 706.3 161.812 706C164.712 705.3 164.994 703.394 162.594 700.094C162.094 699.494 161.113 698.794 159.812 698.094C159.212 697.694 158.094 697.288 156.594 696.688C151.494 694.687 146.794 691.913 142.594 688.312C136.894 683.413 134.894 677.613 136.594 670.812C137.519 666.726 140.418 663.359 144.312 661.812C145.713 661.213 147.312 661 149.312 661ZM462.312 661.688C462.413 661.687 462.688 662 462.688 662.5C462.71 662.702 462.832 662.885 463 663L463.594 663C466.294 662.3 466.988 662.812 465.688 664.312C462.287 667.913 461.4 672.312 463 677.312C463.2 677.812 462.913 678.412 462.312 678.812L459.594 680.812L459.188 681L459 681C458.9 680.8 459.012 680.613 459.312 680.312C461.213 677.513 461.288 674.594 459.688 671.594C459.488 671.194 459.088 671.094 458.688 671.094C458.187 671.094 457.8 671.387 457.5 671.688C457.2 672.087 457.013 672.194 456.812 672.094C456.613 671.994 456.494 671.713 456.594 671.312C457.094 669.713 458.1 668.488 459.5 667.688C459.8 667.488 460.094 667.3 460.094 667L461.188 663L461.594 662.188C461.794 661.687 462.112 661.688 462.312 661.688ZM364.906 667C368.106 666.9 370.687 667.394 372.688 668.594C376.887 671.094 379.187 675.112 379.688 680.812C380.286 685.239 379.216 689.724 376.688 693.406C373.887 697.306 370.306 700.187 365.906 702.188C361.806 703.988 356.494 705.3 350.094 706C349.794 706 349.594 706.294 349.594 706.594C349.694 711.294 352.294 713.887 357.094 714.188C357.301 714.194 357.49 714.32 357.594 714.5L357.688 715.094L354.406 724.5C354.306 725 353.813 725.312 353.312 725.312C344.113 725.113 335.5 726.4 327.5 729L327.094 729C326.894 728.9 326.906 728.688 326.906 728.688L323.688 717.188L323.688 716.812C323.788 716.613 323.9 716.594 324 716.594C329 715.294 331.594 712.1 331.594 707C331.794 697.1 331.8 691.113 331.5 688.812C331.1 685.512 329.094 683.713 325.594 683.312L324.594 683.5C324.194 683.8 323.894 683.8 323.594 683.5C323.394 683.3 323.406 682.894 323.406 682.594L327.406 670.594C327.506 670.294 327.794 670.188 328.094 670.188C332.438 671.067 336.914 671.235 341.312 670.688C346.352 670.023 351.358 669.135 356.312 668C358.912 667.4 361.906 667 364.906 667ZM317.688 671.188L317.812 671.188C317.942 671.142 318.058 671.142 318.188 671.188C318.387 671.288 318.5 671.487 318.5 671.688L322 683.688L322 684C321.9 684.2 321.788 684.188 321.688 684.188C320.089 684.064 318.496 684.412 317.094 685.188C315.798 685.989 314.892 687.318 314.594 688.812C314.094 690.412 313.906 692.012 313.906 693.812L313.906 696.812L313.5 713C313.4 718.1 311.206 722.6 306.906 726.5C303.006 729.9 297.9 731.9 291.5 732.5C286.7 732.9 282.094 732.513 277.594 731.312C273.394 730.113 270.194 728.313 268.094 725.812C265.494 722.813 264.188 719.113 264.188 714.812L264.094 699.5L263.812 691C263.012 687.8 260.5 685.706 256.5 684.906L256.094 684.688L256 684.312L259 672.094C259 671.894 259.087 671.812 259.188 671.812C268.713 674.56 278.768 674.987 288.5 673.094C288.7 673.094 289 673.206 289 673.406L291.594 685.188C291.694 685.387 291.6 685.587 291.5 685.688C291.4 685.887 291.2 685.906 291 685.906C288.6 686.106 287 687.106 286 688.906C285.3 690.006 285 691.787 285 694.188L285 709.594C285 712.094 285.412 713.794 286.312 715.094C288.113 717.594 290.894 718.294 294.594 717.094C296.194 716.494 297.387 715.594 298.188 714.094C298.688 713.094 299 711.712 299 709.812L299 695L298.906 689.5C298.306 687.6 296.588 686.413 293.688 685.812C293.387 685.813 293.194 685.606 293.094 685.406L293 684.688L296.5 672.812C296.6 672.613 296.887 672.406 297.188 672.406C304.026 673.522 311.026 673.094 317.688 671.188ZM222.406 671.312C232.112 671.717 241.065 676.578 246.688 684.5C251.188 690.6 253.113 697.4 252.312 705C251.875 716.489 244.067 726.385 233 729.5C229.478 730.456 225.837 730.96 222.188 731C216.787 731.3 211.606 729.313 206.406 725.312C199.971 720.049 195.533 712.727 193.812 704.594C191.562 697.162 192.886 689.126 197.406 682.812C203.227 674.959 212.655 670.621 222.406 671.312ZM77.6875 671.406C77.8875 671.506 77.9937 671.487 78.0938 671.688C79.4937 673.587 79.9 675.312 79.5 676.812L77.5 684.906C77.3 686.006 77.6875 686.706 78.6875 686.906C78.9875 686.906 79.3125 686.706 79.3125 686.406C79.7996 684.475 80.777 682.719 82.1875 681.312C82.9875 680.512 83.8875 680.013 84.6875 679.812C86.3875 679.513 87.2062 680.4 87.4062 682.5C87.5062 683.8 87.4875 684.8 87.1875 685.5C86.8875 686.7 86.4063 686.8 85.9062 685.5C85.2062 683.6 84.0938 683.113 82.5938 683.812C81.2938 684.413 80.8062 685.612 80.9062 687.312C80.9062 687.512 81.1062 687.806 81.4062 687.906L83.4062 688.688C83.8062 688.788 83.9125 689.106 83.8125 689.406C83.7125 689.806 82.9063 689.788 81.4062 689.188C80.7062 688.988 80.4875 689.2 80.6875 690C81.5875 693.5 83.1 694.6 85 693C85.4 692.6 85.6063 692.712 85.4062 693.312C85.1062 694.613 84.3125 695.406 83.3125 695.406C82.4125 695.506 81.7 695.213 81 694.312C79.9195 693.061 79.3298 691.466 79.3125 689.812C79.3125 688.512 78.8125 688 77.8125 688C77.5125 688 77.3125 688.194 77.3125 688.594L76.8125 692.688L77 693.594C77 694.394 76.7 694.5 76 694C75.7 693.8 75.5938 693.488 75.5938 693.188C75.5938 691.687 75.7 689.8 76 687.5C76.1 686.6 75.7937 686.094 75.0938 686.094C74.7938 685.994 74.5125 686.2 74.3125 686.5C73.9125 687.3 73.3875 687.988 72.6875 688.688C71.8875 689.587 70.9063 689.794 69.9062 689.094C68.9062 688.294 68.9875 688.112 70.1875 688.312C71.4875 688.413 72.4875 687.606 73.1875 685.906C73.2875 685.606 73.2063 685.288 72.9062 685.188C71.1062 684.288 70.6875 683.788 71.6875 683.688L72.6875 683.688C73.5875 684.087 73.8875 683.694 73.6875 682.594C73.4875 682.094 73.5 681.713 73.5 681.312C73.3429 679.577 72.4678 677.978 71.0938 676.906C70.8938 676.806 70.6125 676.712 70.3125 676.812C69.9125 676.812 69.7 677.012 69.5 677.312C68.9 678.412 68.4 679.013 68 678.812C67.6 678.713 67.4062 678.3 67.4062 677.5C67.4063 674.7 68.7062 673.787 71.4062 674.688C71.8062 674.788 72.0125 674.987 72.3125 675.188C74.2125 677.688 74.8938 680.487 74.5938 683.688C74.3938 684.587 74.7063 685 75.4062 685C75.7062 685 76 684.706 76 684.406C76 682.506 75.8125 679.713 75.3125 676.312C75.0125 674.413 75.7125 672.8 77.3125 671.5L77.6875 671.406ZM447.875 671.781C447.938 671.756 448.037 671.806 448.188 671.906C449.487 672.806 450.4 674.312 451 676.312C451.1 676.712 451.3 676.713 451.5 676.312C453.4 673.512 455.1 673.513 456.5 676.312L456.5 676.594L456.312 676.688C453.213 676.787 451.406 678.494 450.906 682.094C450.906 682.894 451.206 683.088 451.906 682.688C454.506 680.987 455.188 681.012 454.188 682.812L453.5 683.406C451.4 684.306 451.3 685.387 453 686.688C453.3 686.887 453.5 687.113 453.5 687.312C453.9 687.913 453.406 687.913 452.406 687.312C451.706 686.812 451.406 686.812 451.406 687.312C451.426 687.494 451.483 687.667 451.594 687.812C452.294 688.613 452.2 689.312 451.5 689.812C451.1 690.113 450.906 690.094 450.906 689.594C451.106 688.194 450.813 687.606 450.312 687.906C450.013 688.006 449.713 688.187 449.312 688.688C448.613 689.588 447.8 690.488 447 691.188C446.5 691.588 446.394 691.506 446.594 690.906L446.812 690.594C447.986 689.352 448.891 687.909 449.5 686.312C449.6 686.012 449.488 685.8 449.188 686L447.5 686.812L446.5 686.906C445.5 686.506 446.094 685.788 448.094 684.688C448.394 684.587 448.594 684.394 448.594 684.094C448.794 683.794 448.794 683.513 448.594 683.312C447.494 681.013 445.988 681.012 444.188 683.312C443.388 684.413 443.087 684.306 443.188 682.906C443.588 679.706 444.994 678.488 447.594 679.188C448.494 679.387 448.694 679.206 448.094 678.406C447.194 677.506 447.006 676.513 447.406 675.312C447.806 674.213 447.812 673.094 447.812 672.094C447.813 671.894 447.812 671.806 447.875 671.781ZM103.094 679.312C103.294 679.313 103.4 679.506 103.5 679.906L105.5 684.312L105.594 685.188L103.312 695.5C103.229 695.815 103.291 696.157 103.5 696.406C103.8 697.006 104.2 697.012 104.5 696.312C104.7 696.113 104.688 695.9 104.688 695.5C105.044 692.918 106.463 690.594 108.594 689.094C109.894 688.094 111.112 688.094 112.312 689.094C113.912 690.294 114.488 691.994 114.188 694.094C114.087 694.594 113.994 694.712 113.594 694.312C111.494 691.812 109.5 691.812 107.5 693.812C105.2 696.213 105.612 697.694 108.812 698.094C109.176 698.133 109.522 698.278 109.812 698.5C110.312 699 110.2 699.394 109.5 699.594L108.5 699.594L106.812 699.406L106.5 699.406C106.3 699.506 106.312 699.712 106.312 699.812C106.413 702.213 107.512 703.587 109.812 704.188C110.012 704.187 110.394 704.2 110.594 704C111.894 703.2 112.194 703.294 111.594 704.594L111.094 705.188C109.494 706.587 108.006 706.388 106.906 704.688C105.906 703.488 105.306 701.813 104.906 699.812L104.5 698.688C103.8 697.687 103.288 697.687 103.188 698.688C102.988 699.387 102.906 700.106 102.906 700.906C102.706 703.506 102.206 704.506 101.406 703.906C101.106 703.606 101.094 703.306 101.094 702.906L101.406 698.406C101.406 697.906 101.294 697.606 101.094 697.406C100.794 697.306 100.487 697.213 100.188 697.312C99.8875 697.413 99.7938 697.6 99.5938 698C98.9937 699.4 98.3063 700.287 97.4062 700.688C95.7063 701.488 94.5063 701.206 93.9062 699.906C93.7062 699.606 93.7875 699.494 94.1875 699.594C95.7875 699.994 96.9875 699.587 97.6875 698.188C98.3875 696.887 97.9063 696.1 96.4062 696L95.4062 695.594C94.2062 694.594 94.4 694.094 96 694.094C96.3843 694.172 96.7487 694.313 97.0938 694.5L97.6875 694.594L98 694.5C98.2 694.4 98.1875 694.288 98.1875 694.188C98.0875 692.387 97.5 690.906 96.5 689.906C95.1 688.506 93.8 688.812 92.5 690.812C91.9 691.912 91.3063 691.794 90.9062 690.594C90.0063 687.894 90.4125 686.294 92.3125 685.594C93.7125 685.094 95.0125 685.406 96.3125 686.406C98.8125 688.206 99.9125 690.787 99.8125 694.188C99.8125 695.387 100.2 695.894 101 695.594C101.3 695.494 101.406 695.206 101.406 694.906L100.406 685.812C100.322 685.485 100.322 685.14 100.406 684.812L102.594 679.812C102.794 679.512 102.894 679.312 103.094 679.312ZM48.1875 679.5C59.4683 690.333 72.625 699.026 87 705.188C109.7 714.988 134.187 722.6 160.688 728C177.956 731.65 195.43 734.321 213 736C242.248 738.747 271.631 739.776 301 739.094C317.464 738.726 333.87 737.14 350.094 734.312C373.108 730.279 395.769 724.34 417.812 716.594C425.587 713.987 433.159 710.84 440.5 707.188C450.888 702.043 460.176 694.908 467.812 686.188C468.613 687.988 468.788 689.788 468.188 691.688C466.787 693.287 465.413 694.794 463.812 696.094C451.675 706.174 437.932 714.2 423.188 719.812C406.787 726.113 390.013 731.094 372.812 734.594C342.545 741.509 311.544 744.785 280.5 744.312C256.8 743.912 238.588 743.4 225.688 742.5C206.388 741.2 184.988 738.206 161.688 733.406C142.89 729.639 124.423 724.458 106.406 717.906C95.1309 714.005 84.1539 709.24 73.5938 703.688C64.4937 698.887 55.8125 692.7 47.3125 685L47.0938 681C46.9938 680.6 47.1125 680.294 47.3125 680.094L48.1875 679.5ZM428.812 681.312C429.013 681.313 429.194 681.587 429.594 682.188L431.312 685.312L431.312 686.188C430.707 688.033 430.312 689.967 430.188 691.906C430.187 692.406 430.3 692.706 430.5 692.906C430.8 693.406 431.2 693.387 431.5 692.688C431.7 692.488 431.688 692.113 431.688 691.812C431.75 688.818 433.235 686.032 435.688 684.312C437.487 682.913 438.8 683.312 439.5 685.312C440.2 687.012 439.8 687.4 438.5 686.5C438.1 686.3 437.8 686.312 437.5 686.312C435.2 686.413 433.788 687.7 433.188 690C432.687 692 433.194 692.406 434.594 691.406C434.994 691.206 435.294 691 435.594 691C436.694 691 436.688 691.406 435.688 692.406C434.987 692.906 434.387 693.387 433.688 693.688C433.387 693.887 433.188 694.1 433.188 694.5C433.087 696.8 434.312 698.1 436.812 698.5C437.613 698.6 437.706 698.912 436.906 699.312C435.306 700.113 434.006 699.813 432.906 698.312C432.48 697.519 432.145 696.681 431.906 695.812C431.806 695.412 431.613 695.013 431.312 694.812C430.813 694.512 430.388 694.812 430.188 695.812C429.987 696.712 430.113 699.213 430.312 703.312C430.312 703.913 430.012 704.406 429.312 704.406C429.213 704.506 429 704.412 429 704.312C428.8 704.213 428.812 704 428.812 704L428.812 697C428.812 696.6 428.606 696.294 428.406 696.094C428.106 695.894 427.894 695.894 427.594 696.094C427.394 696.394 427.312 696.694 427.312 697.094C427.074 699.716 425.627 702.086 423.406 703.5C423.306 703.7 423.106 703.688 422.906 703.688C422.306 703.687 422.394 703.413 423.094 702.812C424.731 701.534 425.807 699.651 426.094 697.594L426 697.188C425.9 696.988 425.788 697 425.688 697C425.088 697 424.594 697.206 424.094 697.406C423.694 697.706 423.488 697.688 423.188 697.688C422.488 697.687 422.488 697.306 423.188 696.406C424.032 695.756 424.991 695.249 426 694.906C426.3 694.806 426.312 694.488 426.312 694.188C424.613 690.087 422.713 689.888 420.312 693.688C419.713 694.688 419.312 694.606 419.312 693.406C419.113 690.106 420.587 688.294 423.688 688.094C423.987 688.094 424.3 688.206 424.5 688.406C426.133 689.6 427.215 691.403 427.5 693.406C427.488 693.776 427.68 694.128 428 694.312C428.8 694.812 428.988 694.4 428.688 693L427.312 687.5C427.213 686.9 427.3 686.313 427.5 685.812C428.2 684.313 428.5 683.113 428.5 682.312L428.812 681.312ZM403.406 687.5C403.506 687.5 403.712 687.606 403.812 687.906L405.5 691.5C405.9 692.2 406.013 692.9 405.812 693.5C404.713 696.1 404.312 698.806 404.312 701.406C404.313 701.563 404.374 701.718 404.5 701.812C404.6 702.012 404.712 702 404.812 702C405.613 701.9 406 701.2 406 700C405.889 697.354 406.957 694.793 408.906 693C410.106 691.9 411.094 691.312 412.094 691.312C413.594 691.312 414.506 692.594 414.906 695.094C415.006 695.894 414.694 696.006 414.094 695.406C412.494 694.006 411.113 693.8 409.812 695C408.113 696.6 407.3 698.288 407.5 700.188C407.484 700.377 407.546 700.562 407.688 700.688L408.312 700.812C409.613 700.212 410.406 700.212 410.406 700.812C410.406 701.113 410.206 701.394 409.906 701.594C406.506 703.594 407.287 705.413 412.188 706.812C412.488 706.913 412.588 706.987 412.188 707.188C409.687 708.387 407.8 707.606 406.5 704.906C406.2 704.406 405.894 704.106 405.594 703.906C404.994 703.606 404.606 703.894 404.406 704.594L404.406 705.906C404.706 707.506 404.688 709.206 404.688 710.906C404.687 711.306 404.513 711.487 404.312 711.688C403.312 711.988 402.912 711.5 403.312 710C403.713 707.7 403.7 706.2 403 705.5C402.4 704.9 401.906 704.787 401.406 705.188C401.206 705.387 401.006 705.806 400.906 706.406C400.306 708.906 399.288 710.906 397.688 712.406C396.987 713.206 396 713.306 395 712.906C394.7 712.806 394.7 712.6 395 712.5C397.9 711.4 399.406 709.388 399.406 706.688C399.406 706.387 399.294 706.106 399.094 705.906C398.794 705.906 398.513 705.806 398.312 705.906C396.513 706.606 395.706 706.494 395.906 705.594C396.006 705.194 396.312 704.8 396.812 704.5C397.513 704.2 397.994 703.906 398.594 703.906C399.694 703.906 399.988 703.5 399.188 702.5C397.287 700 395.513 700.187 393.812 703.188C393.612 703.788 393.413 703.688 393.312 703.188C392.912 699.288 394.2 697.288 397.5 697.188L398.406 697.5C400.006 698.7 400.8 700.187 401 702.188C401.1 702.488 401.3 702.806 401.5 702.906C402.2 703.106 402.688 702.894 402.688 702.094C401.952 699.344 401.285 696.595 400.688 693.812C400.587 693.512 400.712 693.113 400.812 692.812C401.846 691.282 402.604 689.593 403.094 687.812C403.094 687.512 403.206 687.5 403.406 687.5ZM357.594 681.312L357.594 681.406L350.188 683.406C349.887 683.406 349.688 683.7 349.688 684L349.688 691.688C349.648 691.856 349.722 692.034 349.844 692.156C349.966 692.278 350.144 692.351 350.312 692.312C353.41 692.329 356.434 691.493 359.094 689.906C360.388 689.252 361.439 688.201 362.094 686.906C362.894 685.206 362.506 683.587 360.906 682.188C359.806 681.287 358.694 681.012 357.594 681.312ZM216.906 688.312C215.706 688.312 214.5 688.812 213.5 689.812C211.2 692.113 210.412 694.612 211.312 697.312C211.713 698.412 212.812 700.513 214.812 703.312C217.459 707.248 220.893 710.567 224.906 713.094C226.885 714.424 229.445 714.52 231.5 713.312C233.6 711.913 234.5 710.1 234 708C232.371 700.183 227.537 693.416 220.688 689.312C219.542 688.623 218.242 688.276 216.906 688.312Z" fill="#c2d047" fill-rule="nonzero" opacity="1" stroke="none"/>
</g>
</svg>
